<?xml version="1.0" standalone="no"?>
<!DOCTYPE svg PUBLIC "-//W3C//DTD SVG 1.1//EN" "http://www.w3.org/Graphics/SVG/1.1/DTD/svg11.dtd" >
<svg xmlns="http://www.w3.org/2000/svg">
<metadata></metadata>
<defs>
<font id="raspoutine_classicitalic" horiz-adv-x="1150" >
<font-face units-per-em="2048" ascent="1638" descent="-410" />
<missing-glyph horiz-adv-x="468" />
<glyph horiz-adv-x="0" />
<glyph horiz-adv-x="682" />
<glyph unicode=" "  horiz-adv-x="468" />
<glyph unicode="&#x09;" horiz-adv-x="468" />
<glyph unicode="&#xa0;" horiz-adv-x="468" />
<glyph unicode="!" horiz-adv-x="555" d="M104 90q0 -54 33 -80t74 -26q59 0 103 48.5t44 108.5q0 47 -28 77t-72 30q-55 0 -104.5 -45.5t-49.5 -112.5zM201 442q-7 -33 17.5 -58.5t60.5 -25.5q39 0 68.5 24t35.5 60q31 188 93 462.5t108 447.5q9 37 -21.5 63t-70.5 21q-55 -6 -95.5 -39t-46.5 -82q-3 -32 -7 -66 t-8 -61t-12.5 -75.5t-13.5 -78t-18 -103.5t-21 -118q-51 -285 -69 -371z" />
<glyph unicode="&#x22;" horiz-adv-x="811" d="M274 911q0 -9 7.5 -15.5t17.5 -6.5q9 0 18.5 6.5t12.5 15.5l168 504q11 37 4 64q-7 26 -30 40.5t-54 14.5q-44 0 -82.5 -28t-46.5 -79q-5 -22 -6 -36zM616 911q0 -9 7.5 -15.5t17.5 -6.5q9 0 18.5 6.5t12.5 15.5l168 504q11 37 4 64q-7 26 -29.5 40.5t-52.5 14.5 q-45 0 -84 -28t-49 -79l-4 -36z" />
<glyph unicode="#" horiz-adv-x="1366" d="M182 469v158h305l33 221h-289v158h310l63 438h164l-63 -438h225l65 438h160l-59 -438h280v-158h-303l-33 -221h285v-158h-307l-68 -469h-162l68 469h-227l-68 -469h-164l70 469h-285zM649 627h230l30 221h-225z" />
<glyph unicode="$" horiz-adv-x="1024" d="M-12 62.5q-13 47.5 6 89.5q14 35 54 43.5t73 -11.5q86 -50 268 -47l53 162q7 19 25.5 24t33.5 -6.5t13 -31.5l-8 -129q34 9 57.5 18t57 32.5t57.5 55.5q47 59 47 139q2 27 -4.5 51.5t-21 44.5t-28 34.5t-36 28.5t-34.5 21t-34 17.5t-24 11.5q-47 25 -74 40t-73.5 45 t-74.5 58t-58 66t-44 83t-14 95q0 63 18 125q39 133 150 226q68 57 132.5 82t158.5 43q19 82 24 122q3 27 24 44.5t48 17.5q26 0 40.5 -21.5t6.5 -46.5q-11 -34 -25 -106q142 -6 238 -29q42 -10 63 -50t7 -83q-13 -35 -49 -46t-70 7q-16 8 -36.5 15t-34 10.5t-41 7 t-35.5 4.5t-42 3.5t-37 2.5l-57 -176q-6 -19 -23 -23.5t-31.5 6t-12.5 29.5l10 148q-223 -71 -223 -252q0 -35 10.5 -64.5t24.5 -49t37 -38t39.5 -28t40.5 -22t32 -17.5q64 -32 106 -56.5t89.5 -61t75.5 -73.5t46.5 -88t18.5 -110q0 -184 -133 -308q-38 -35 -78 -61.5 t-89 -44.5t-75 -25.5t-80 -21.5l-27 -129q0 -2 -1 -7.5t-1 -7.5q-3 -28 -23 -46.5t-48 -18.5q-22 0 -36.5 17t-8.5 38q1 3 4 15t4 20l20 104q-208 -5 -313 29q-42 13 -55 60.5z" />
<glyph unicode="%" horiz-adv-x="1732" d="M150 809q0 -161 79 -227q60 -54 152 -54q95 0 173.5 50.5t127 126.5t81.5 170.5t46.5 177.5t13.5 153q0 142 -71 205q-62 53 -160 53q-100 0 -186 -53q-59 -38 -106 -103t-74 -133.5t-45 -143t-24.5 -129t-6.5 -93.5zM303 801q0 37 7.5 98.5t27.5 143.5t49 152 t77.5 118.5t106.5 48.5q29 0 50 -12t30.5 -26.5t15.5 -36t6.5 -32.5t0.5 -24q0 -104 -42 -278t-93 -240q-54 -70 -131 -70q-105 0 -105 158zM451 32.5q8 -22.5 30 -36.5q20 -13 42.5 -11.5t31.5 19.5q143 259 453 807q218 391 323 561q10 18 0.5 39t-31.5 35q-23 14 -47 9 t-34 -25q-35 -67 -314 -562q-20 -36 -59 -107.5t-60 -107.5q-217 -385 -333 -581q-10 -17 -2 -39.5zM975 264q0 -160 80 -227q60 -53 151 -53q69 0 129.5 26.5t104.5 71t80 103.5t59 122t39 129t22.5 123t6.5 105q0 138 -72 202q-63 54 -158 54q-101 0 -186 -54 q-59 -37 -106 -102t-74 -133.5t-45 -143.5t-24.5 -129.5t-6.5 -93.5zM1128 256q0 37 7.5 98.5t27.5 143.5t49 152t77 118.5t106 48.5q102 0 102 -131q0 -104 -42 -278t-93 -240q-56 -70 -129 -70q-105 0 -105 158z" />
<glyph unicode="&#x26;" horiz-adv-x="1202" d="M117 330q0 127 78 227q112 145 360 166q21 0 23 12q0 9 -27 13q-77 13 -121 32q-60 31 -93.5 86t-33.5 125q0 148 119 258q136 123 356 123q76 0 137 -12q24 -7 33 -25q15 -24 8 -57q-10 -20 -26 -31q-25 -11 -45 -2q-58 27 -140 27q-145 0 -229 -85t-84 -198 q0 -19 3 -38.5t14.5 -47.5t30.5 -50.5t54.5 -43t83.5 -29.5q66 -12 269 -12l26 139q7 34 19.5 90.5t15.5 75.5q6 39 32 67t62 36q26 3 39 -13q12 -15 6 -35q-30 -80 -83 -360h73h33l23 2q17 0 26 -12q11 -11 8 -27q-8 -25 -30 -39.5t-50 -13.5h-100l-76 -381l-14 -70 q-4 -45 -25.5 -86.5t-66.5 -52.5l-60 -12q-136 -25 -253 -25q-103 0 -173 23q-92 27 -135 76q-67 70 -67 180zM260 352q0 -142 131 -194q68 -27 176 -27q31 0 64 3.5t52 6.5t46.5 8.5t30.5 6.5l108 522q-272 0 -360 -21q-119 -30 -183.5 -119t-64.5 -186z" />
<glyph unicode="'" horiz-adv-x="425" d="M258 911q0 -9 7 -15.5t16 -6.5q21 0 32 22l168 504q11 37 4 64q-7 26 -30 40.5t-52 14.5q-46 0 -84.5 -28t-48.5 -79q-1 -4 -1.5 -9t-1 -12.5t-1.5 -14.5z" />
<glyph unicode="(" horiz-adv-x="790" d="M274 252q0 -293 111 -598q10 -37 53 -37q17 0 25.5 13.5t5.5 31.5q-45 208 -45 440q0 287 67.5 586.5t163.5 515.5q19 42 152 301q6 12 -1.5 23.5t-21.5 11.5q-43 0 -69 -37q-222 -323 -340 -657q-101 -309 -101 -594z" />
<glyph unicode=")" horiz-adv-x="772" d="M-55 -346q-6 -12 1 -23.5t21 -13.5q42 0 68 37q226 321 342 659q100 302 100 592q0 296 -110 598q-13 37 -54 37q-17 0 -25 -13.5t-5 -31.5q45 -195 45 -440q0 -287 -68 -586t-164 -516q-25 -57 -151 -299z" />
<glyph unicode="*" horiz-adv-x="681" d="M185.5 1054q-6.5 -21 4.5 -40q9 -20 30 -25.5t38 6.5q21 18 45 33q9 6 61.5 40t61.5 40q-4 -13 -12.5 -35.5t-19.5 -51.5t-17 -44q-7 -21 -10 -33q-8 -22 2.5 -40.5t33.5 -18.5q29 0 49.5 19.5t22.5 47.5q2 30 14 156q76 -60 107 -94q18 -18 42 -15.5t42 23.5 q13 18 4 38.5t-31 31.5q-55 27 -118 65q33 12 90 39q61 28 77 35q18 6 24.5 26t-1.5 39q-9 20 -26.5 28t-32.5 -3q-27 -22 -154 -107l-10 -8q23 69 35 123q3 10 9 31t9 31q6 19 -6.5 34t-32.5 15q-29 0 -49.5 -17.5t-20.5 -44.5q-3 -106 -8 -178q-101 93 -129 119 q-15 13 -34 10t-31 -18q-14 -20 -9 -43t25 -33q66 -33 139 -82q-18 -7 -186 -72q-21 -6 -27.5 -27z" />
<glyph unicode="+" horiz-adv-x="1366" d="M150 596q-5 -34 14.5 -58t52.5 -24h428l-76 -432q-6 -34 14 -58t54 -24t62 24t34 58l76 432h432q34 0 62 24t34 58t-13.5 58t-53.5 24h-432l75 428q6 34 -13.5 58t-53.5 24t-62 -24t-34 -58l-74 -428h-428q-35 0 -63.5 -24t-34.5 -58z" />
<glyph unicode="," horiz-adv-x="468" d="M-88 -224q2 -15 16 -24q13 -9 30.5 -7.5t29.5 13.5q114 134 176.5 230t97.5 200q12 32 -14 57t-60 17q-43 -9 -72 -42t-38 -79q-9 -41 -29 -94q-51 -146 -129 -244q-10 -12 -8 -27z" />
<glyph unicode="-" horiz-adv-x="641" d="M129 602q-6 -37 18.5 -65t61.5 -27q7 0 23 1t24 1q49 0 201 -8q43 -1 76.5 25t44.5 67q8 36 -15 64.5t-59 25.5q-57 -4 -150 -4q-79 0 -112 2q-40 3 -73 -20.5t-40 -61.5z" />
<glyph unicode="." horiz-adv-x="468" d="M31 88q0 67 49 112.5t104 45.5q44 0 72.5 -30t28.5 -77q0 -60 -44.5 -108.5t-103.5 -48.5q-41 0 -73.5 26t-32.5 80z" />
<glyph unicode="/" horiz-adv-x="724" d="M-47 68q-12 -20 0.5 -40t36.5 -22q33 -1 60.5 16.5t39.5 47.5q17 44 64 120l567 1010q26 44 50.5 85.5t36.5 62.5t23 38q13 21 -2 39.5t-41 20.5q-31 3 -59 -11.5t-41 -43.5q-66 -142 -96 -202t-115 -214q-13 -23 -75 -134.5t-95 -170.5q-132 -235 -137 -244 q-126 -219 -182 -306q-15 -22 -35 -52z" />
<glyph unicode="0" d="M117 432q0 -186 69 -299q38 -65 117.5 -109t185.5 -44q119 0 223 51.5t178.5 139.5t132.5 198.5t93 234t52.5 240.5t17.5 223q0 78 -16 141.5t-40 104.5t-59.5 71.5t-68 46t-72.5 24.5t-65 11t-54 2q-325 0 -526 -370q-77 -140 -122.5 -341t-45.5 -325zM338 412 q0 147 42.5 338.5t100.5 318.5q117 260 301 260q19 0 37.5 -2.5t48 -15t50.5 -34t37 -65t16 -102.5q0 -130 -42 -355t-108 -380q-106 -240 -293 -240q-190 0 -190 277z" />
<glyph unicode="1" horiz-adv-x="782" d="M240 1194q-3 -32 26 -49t60 -2q92 45 221 84q0 -33 -27 -205.5t-41 -237.5l-69 -340q-43 -210 -78 -335q-11 -38 10.5 -71t60.5 -32h21h20q43 -1 75.5 30.5t37.5 76.5q3 37 12 88l121 688q55 306 96 471q9 35 -17 60t-58 10q-116 -49 -193 -74t-172 -43 q-42 -7 -71.5 -40.5t-34.5 -78.5z" />
<glyph unicode="2" d="M57 96q-8 -38 17 -68.5t63 -29.5q280 8 572 2q45 -2 155 -2q49 -1 89.5 30t52.5 81q0 6 4 18q9 33 -11.5 59.5t-52.5 20.5q-64 -15 -201 -12h-522q6 4 80.5 54.5t114.5 78.5q248 172 393 290.5t219 212.5q64 81 89.5 163.5t25.5 129.5q0 346 -440 346q-119 0 -256 -26 q-50 -9 -86 -48t-44 -91q-5 -34 22.5 -54.5t59.5 -7.5q113 45 246 45q121 0 202 -47t81 -143q0 -242 -490 -631q-156 -124 -274 -203q-87 -62 -109 -168z" />
<glyph unicode="3" d="M82 117q-14 -38 2.5 -74t54.5 -45q100 -21 246 -21q183 0 328 59.5t232 179.5t87 282q0 102 -66.5 165t-189.5 82q-94 10 -110 11q18 5 100 30q136 42 226.5 145.5t90.5 242.5q0 36 -10.5 73t-33 76t-66 71.5t-101.5 49.5q-77 22 -165 22q-127 0 -283 -36 q-43 -10 -73.5 -45t-39.5 -82q-6 -26 16.5 -42.5t49.5 -7.5q38 14 96 29q86 14 145 14q115 0 173.5 -49.5t58.5 -128.5q0 -132 -120.5 -224.5t-323.5 -92.5h-21q-38 0 -68.5 -21t-37.5 -55q-8 -28 11.5 -50t49.5 -18q74 9 111 9q93 0 160.5 -13t104.5 -32.5t58.5 -49.5 t27 -55.5t5.5 -58.5q0 -40 -11 -82t-41.5 -89t-77.5 -83t-126 -60t-180 -24q-111 0 -183 37q-31 18 -63.5 6t-42.5 -45z" />
<glyph unicode="4" d="M94 420q-4 -32 17.5 -56t54.5 -24h547l-27 -129q-11 -52 -22 -96q-12 -42 15.5 -76.5t70.5 -34.5q50 0 88.5 30.5t42.5 76.5q7 47 12 86l27 143h61h16q42 -3 76 22t41 66q7 35 -17 61.5t-61 26.5h-12h-72l90 485q29 139 76 336q10 41 -15.5 74t-66.5 31h-37h-16 q-57 2 -110.5 -21.5t-88.5 -66.5q-42 -51 -102.5 -122.5t-100.5 -118.5t-53 -64q-33 -42 -348 -447q-6 -6 -18 -22q-55 -70 -68 -160zM285 516q303 407 520 653q70 84 100 117l-157 -770h-463z" />
<glyph unicode="5" d="M117 125q-12 -41 4 -79t55 -48q102 -25 207 -25q133 0 242 27t206 98q122 90 178 204.5t56 234.5q0 151 -91 249.5t-257 98.5q-50 0 -104 -20t-90.5 -44.5t-73 -48t-52.5 -27.5l95 492q169 -12 335 -12q153 0 220.5 12t109.5 53q30 30 49 76q15 36 -16 62.5t-74 21.5 q-8 0 -14 -2q-80 -8 -254 -8q-63 0 -219 4q-19 1 -59.5 4t-61.5 4q-52 3 -93 -25.5t-48 -78.5q-52 -326 -119 -605q-9 -35 20.5 -56t63.5 -7q117 43 233 43q59 0 106.5 -11t86 -35.5t59.5 -68.5t21 -104q0 -49 -12 -99.5t-41.5 -103.5t-73.5 -93.5t-114.5 -66.5t-158.5 -26 q-81 0 -147 20q-40 12 -64 27q-31 18 -65.5 7t-44.5 -44z" />
<glyph unicode="6" d="M137 412q0 -253 135 -355q101 -80 267 -80q171 0 303 80q74 45 130 118t83 140.5t43.5 141.5t20 111t3.5 59q0 155 -90.5 245.5t-243.5 90.5q-44 0 -85 -12t-73 -29t-64.5 -46.5t-54.5 -54t-48 -62t-39 -59.5t-34 -58.5t-28 -47.5q17 79 32 141t41.5 143t55 141t71 122.5 t91 101.5t114 62t140.5 20q89 0 154 -35q33 -20 71 -13t58 38q21 32 9.5 69t-46.5 46q-98 30 -231 30q-136 0 -255.5 -47.5t-207.5 -126.5q-84 -79 -150 -200.5t-101.5 -247t-53 -234.5t-17.5 -192zM350 332q0 44 11 101.5t38 124.5t65.5 122t99.5 92t134 37q96 0 148.5 -59 t52.5 -164q0 -86 -39 -214t-110 -192q-36 -31 -77.5 -47t-62.5 -18t-53 -2q-101 0 -154 58t-53 161z" />
<glyph unicode="7" d="M214.5 33q17.5 -29 53.5 -29h27h12q55 0 101.5 26t70.5 72q131 268 412 707q78 123 369 561q19 28 3 59.5t-49 28.5q-137 -10 -282 -10h-129q-73 0 -160 1t-100 1q-69 0 -135 4q-47 3 -84 -25t-43 -73q-1 -10 -11 -74q-5 -28 18.5 -45.5t51.5 -7.5q6 2 22 6q33 10 150 14 h492l-564 -837q-148 -223 -223 -322q-20 -28 -2.5 -57z" />
<glyph unicode="8" d="M102 297q0 -53 14.5 -99.5t47 -88t82 -71t123 -46.5t166.5 -17q130 0 233.5 39.5t163.5 97.5t100 132t54 136t14 116q0 33 -5.5 62.5t-14 52t-23 42.5t-27 34t-32 26.5t-33 19.5t-34 14.5t-31 10.5t-28.5 8t-22 6q2 0 19.5 5t23 7t23.5 8t27.5 11.5t27 14t29.5 18.5 t28 23t30.5 29.5t28.5 35.5q40 55 63.5 128t23.5 138q0 116 -74 196q-99 95 -309 95q-229 0 -361 -101q-61 -48 -100.5 -119.5t-51.5 -125.5t-12 -99q0 -102 43 -164q32 -44 67 -63.5t105 -38.5q-45 -9 -72 -16.5t-80 -36.5t-98 -74q-51 -52 -82 -125t-39 -124t-8 -97z M332 315q0 77 34 171t107 149q74 55 189 55q99 0 153.5 -50.5t54.5 -145.5q0 -68 -24 -145.5t-62 -129.5q-85 -115 -235 -115q-108 0 -162.5 54.5t-54.5 156.5zM487 1028q0 116 64 219q16 23 31.5 40t41.5 37t64 31t84 11q18 0 35 -2t44.5 -11.5t47 -25.5t34.5 -49t15 -78 q0 -93 -31.5 -178.5t-74.5 -128.5q-62 -62 -156 -62q-39 0 -72.5 10t-63 31.5t-46.5 61t-17 94.5z" />
<glyph unicode="9" d="M103 62q11 -43 51 -56q91 -31 206 -31q170 0 310.5 61t226.5 154q53 58 94.5 129.5t68.5 153t38.5 124.5t27.5 114q41 198 41 313q0 86 -15 155t-38.5 114.5t-58.5 79.5t-69 52t-76.5 28.5t-74.5 13.5t-69 3q-129 0 -233.5 -42.5t-170 -109.5t-110 -154t-62.5 -171.5 t-18 -167.5q0 -78 21.5 -140.5t55 -100.5t78.5 -63.5t89 -35.5t90 -10q141 0 252 76q31 20 61 66.5t56.5 99t37.5 67.5q-11 -75 -29 -158t-57 -192t-86 -162q-40 -51 -84.5 -83.5t-88.5 -45t-69.5 -15.5t-58.5 -3q-126 0 -204 49q-31 20 -66.5 10.5t-54.5 -41.5 q-23 -38 -12 -81zM408 858q0 85 29 190t91 179q85 100 213 100q110 0 170 -72q28 -34 33.5 -107t-8.5 -152.5t-49 -159t-82 -125.5q-72 -72 -207 -72q-92 0 -141 55.5t-49 163.5z" />
<glyph unicode=":" horiz-adv-x="555" d="M117 88q0 -54 32.5 -80t73.5 -26q59 0 103.5 48.5t44.5 108.5q0 47 -28.5 77t-72.5 30q-55 0 -104 -45.5t-49 -112.5zM274 969q0 -55 33.5 -82t73.5 -27q59 0 103 49t44 109q0 47 -28 76.5t-72 29.5q-55 0 -104.5 -45t-49.5 -110z" />
<glyph unicode=";" horiz-adv-x="555" d="M-7 -225q2 -16 15 -25t31.5 -7.5t28.5 13.5q113 132 176 227.5t98 200.5q12 33 -13 58.5t-61 19.5q-42 -9 -71.5 -42.5t-38.5 -78.5q-9 -41 -29 -94q-53 -153 -129 -244q-9 -12 -7 -28zM258 961q0 -54 33.5 -80.5t73.5 -26.5q59 0 103 48.5t44 109.5q0 46 -27.5 76 t-72.5 30q-55 0 -104.5 -46t-49.5 -111z" />
<glyph unicode="&#x3c;" horiz-adv-x="1406" d="M59 723q-6 -40 9.5 -74t48.5 -51l1106 -565q26 -13 55 2.5t35 46.5q6 41 -10 75.5t-48 51.5l-991 514l1172 512q39 19 67 53.5t35 75.5q4 31 -18.5 47t-53.5 4l-1304 -567q-40 -17 -67.5 -51t-35.5 -74z" />
<glyph unicode="=" horiz-adv-x="1370" d="M150 412q-5 -34 14 -57t53 -23h961q34 0 61 23t33 57q6 33 -13.5 56.5t-52.5 23.5h-962q-32 0 -60 -24t-34 -56zM215 780q-6 -33 13.5 -56.5t52.5 -23.5h962q34 0 61 23t33 57q6 32 -13.5 56t-51.5 24h-963q-33 0 -60.5 -23.5t-33.5 -56.5z" />
<glyph unicode="&#x3e;" horiz-adv-x="1519" d="M41 82q-5 -31 18 -46.5t54 -2.5l1304 565q40 17 67.5 51t35.5 74q7 40 -8.5 74t-49.5 51l-1106 567q-26 12 -55 -4t-35 -47q-6 -41 10 -75.5t50 -53.5l989 -512l-1172 -514q-40 -17 -67 -51.5t-35 -75.5z" />
<glyph unicode="?" horiz-adv-x="894" d="M106 90q0 -54 33 -80t74 -26q59 0 103 48.5t44 108.5q0 47 -28 77t-72 30q-55 0 -104.5 -45.5t-49.5 -112.5zM188 469q-6 -37 21 -63.5t65 -28.5q40 -1 71 26t40 68q7 29 17 47.5t31.5 32.5t41.5 22t64 23l100 35q40 16 61 26t55 32t56 47t46 66.5t42 94.5q39 119 39 221 q0 70 -20.5 129t-65.5 109.5t-128 79t-198 28.5q-61 0 -151 -12q-40 -6 -64 -39t-24 -76q0 -30 26 -47t56 -6q67 23 135 23q112 0 168 -50q55 -49 55 -151q0 -67 -16 -136t-47 -116q-21 -32 -44 -54.5t-57 -39t-53.5 -23.5t-67.5 -22q-97 -29 -136 -50.5t-70 -66.5 q-32 -49 -48 -129z" />
<glyph unicode="@" horiz-adv-x="1835" d="M188 479q0 194 73 370.5t196 304.5t293 204t356 76q266 0 425 -154t159 -410q0 -176 -63.5 -339.5t-168 -263t-217.5 -99.5q-46 0 -70 16q-92 47 -96 135q3 38 9 70.5t6 40.5q-13 -17 -40 -56t-47 -66t-51 -62.5t-58.5 -57.5t-63.5 -37.5t-72 -15.5q-99 0 -169.5 71 t-70.5 202q0 31 4.5 72t21.5 108.5t45 130t80.5 132t121.5 120.5q116 92 268 92q12 0 23.5 -0.5t23 -2t19.5 -2.5t20.5 -4.5t18 -4.5t19 -5.5t17 -5.5t18.5 -6t17 -6l37 12q29 9 49 -14.5t12 -54.5q-31 -138 -78 -383q-32 -174 -32 -228q-10 -118 63 -118q39 0 84.5 32 t89.5 91t80.5 134.5t59 172.5t22.5 194q0 108 -31.5 196t-83.5 145t-122 95.5t-142.5 55t-148.5 16.5q-167 0 -322.5 -72t-268.5 -192t-181 -284.5t-68 -342.5q0 -131 39 -239.5t105.5 -183t155.5 -126t188 -75t204 -23.5q107 0 209 23.5t185.5 64t148 84t121.5 94.5 q9 9 20 9q1 -1 5 -2t7 -2.5t5 -4.5q7 -11 5.5 -24t-10.5 -21q-54 -54 -137 -108q-260 -176 -557 -176q-64 0 -131.5 9.5t-143 33.5t-144 59.5t-131.5 92.5t-109 128t-73.5 170t-27.5 215zM682 469q0 -90 35.5 -143.5t111.5 -53.5q114 0 191 111q64 95 108 324l41 227 q-84 27 -139 27q-78 0 -141 -38.5t-100.5 -95t-62.5 -126.5t-34.5 -128t-9.5 -104z" />
<glyph unicode="A" horiz-adv-x="1236" d="M-43 96q-9 -15 -9 -29q0 -15 10 -29q19 -28 54 -28q19 0 27 -2h3q42 0 78 28q36 30 56 75q18 50 57 129l95 194h510l12 -186q2 -32 5.5 -80.5t4.5 -65.5q1 -42 32 -68q29 -25 67 -24h6h22q13 0 19 -2h2q38 0 64 32q21 27 21 59q0 8 -1 16q-6 33 -31 231l-82 723 q-3 31 -8 85t-8.5 97.5t-6.5 81.5q-4 46 -42 74.5t-87 28.5q-33 0 -47 2h-8q-50 0 -92 -24q-46 -26 -70 -71q-187 -386 -411 -804q-19 -36 -58 -109.5t-64 -120t-59 -107t-61 -106.5zM399 586l185 362q9 17 48 90.5t74.5 139.5t45.5 86q14 -85 32 -265l39 -413 q-74 -4 -170 -4q-102 0 -254 4z" />
<glyph unicode="B" d="M55 109q-4 -13 -4 -26q1 -28 19 -52q26 -35 69 -35h27q41 0 127 -4q90 -4 164 -4q96 0 177.5 16t130 35t92.5 51.5t60 49.5t39 44q97 124 97 260q0 52 -13 95t-31 72t-49.5 52.5t-56.5 36.5t-63.5 24t-59 15t-55.5 9q139 15 233 77q90 61 139.5 154t49.5 186 q0 114 -62 189q-54 63 -137 81.5t-203 18.5q-63 0 -183 -5t-161 -5h-28h-2q-37 0 -61 -32q-23 -31 -23 -70v-7q0 -87 -27 -227l-156 -780q-39 -180 -49 -219zM287 209q0 26 14 100l72 350q161 5 198 5q21 0 35.5 -0.5t43.5 -4.5t50 -11t46.5 -22.5t41.5 -37t27.5 -55 t11.5 -76.5q0 -38 -8.5 -77.5t-34 -87t-65.5 -83t-110 -60t-160 -24.5q-43 0 -68 2.5t-49 10.5t-34.5 25.5t-10.5 45.5zM406 823l94 486q132 16 182 16q36 0 64.5 -3t64.5 -14.5t60 -31t40.5 -56.5t16.5 -87q0 -81 -46 -158t-137 -117q-65 -27 -135 -33q-47 -5 -107 -5 q-45 0 -97 3z" />
<glyph unicode="C" d="M113 545q0 -217 86 -350q141 -224 510 -224q77 0 192 13q55 7 97 44.5t65 92.5q9 24 -11 39t-44 4q-25 -10 -33 -14q-100 -37 -207 -37q-216 0 -320 120t-104 326q0 105 20.5 210t68 207t116 179.5t173 125.5t230.5 48q123 0 189 -37q20 -10 41 -10q14 0 30 6 q36 12 52 47q7 18 7 35q0 20 -10 40q-18 36 -57 46q-112 23 -192 23q-148 0 -273.5 -32t-216 -86.5t-162.5 -130.5t-117.5 -159t-75.5 -176.5t-42 -179t-12 -170.5z" />
<glyph unicode="D" horiz-adv-x="1374" d="M57 102q-4 -13 -4 -25q0 -24 16 -45q23 -30 58 -30h4q70 4 86 4q22 0 137.5 -3t134.5 -3q38 0 61 0.5t72.5 5t85.5 13t90 25.5t96.5 41t94 62.5t93.5 86.5t84.5 115.5t76.5 148.5q96 227 96 448q0 115 -32 203q-17 48 -42 88.5t-52 69.5t-62 52t-65 37.5t-69.5 25 t-66 15.5t-64.5 7.5t-56 3t-48 0.5q-25 0 -141.5 -3t-138.5 -3q-49 0 -127 4h-2q-40 0 -67 -34q-25 -33 -25 -77v-6v-23q0 -106 -31 -274l-115 -596q-45 -231 -78 -334zM306 210q0 6 -1 12q0 16 3 34q4 26 11 63l152 791q9 46 43 195q19 2 45.5 6.5t44.5 6t49 1.5 q112 0 193 -20t142 -65.5t91.5 -125.5t30.5 -195q0 -140 -45 -290.5t-90 -233.5q-39 -71 -89.5 -122.5t-96 -78t-103 -41.5t-97 -18.5t-91.5 -3.5q-40 0 -62.5 0.5t-48 3.5t-37 7.5t-24.5 15t-15.5 23.5t-4.5 35z" />
<glyph unicode="E" horiz-adv-x="1024" d="M63 106q-5 -16 -5 -31q0 -23 12 -43q19 -34 57 -34h2q207 0 309 2q62 0 165 -1t145 -1h3q46 0 84 30q39 30 54 78q8 28 -11 48.5t-47 13.5q-8 -2 -25 -5t-24 -5q-109 -19 -278 -19h-70.5t-52 2.5t-40.5 6t-24.5 13t-16 20t-3.5 30.5t1.5 41.5t10.5 56.5l74 381 q64 4 118.5 4t100.5 -4q9 -1 17 -1q37 1 69 19q40 22 49 64q1 7 1 13q0 25 -22 43q-23 18 -53 19q-7 0 -14 -1q-17 -2 -141 -6h-96l88 458q1 0 101.5 3.5t170.5 3.5q115 0 189 -11q8 -1 16 -1q27 -1 49 15q30 20 37 56q2 8 2 16q0 23 -16 41q-19 23 -49 23h-5 q-180 -4 -319 -4q-189 0 -283 2h-3q-46 0 -78 -33q-34 -34 -36 -84q-6 -147 -81 -561l-58 -315q-39 -225 -74 -343z" />
<glyph unicode="F" horiz-adv-x="980" d="M61 106q-4 -13 -4 -25q0 -24 16 -45q24 -32 64 -32h21h16q44 0 77 32.5t38 78.5q9 75 22 149l74 412h211q126 0 182 -10q9 -1 18 -1q33 0 63 20q37 26 46 71q1 7 1 14q0 27 -22.5 47t-50.5 20q-7 0 -14 -1q-4 0 -28 -4t-41 -5q-71 -8 -170 -8q-16 0 -168 4q6 35 21 116 t23.5 127.5t22 109.5t25.5 110q205 8 264 8q103 0 172 -14q14 -3 28 -3q26 0 52 12q38 18 45 57q2 11 2 22q1 28 -15 52q-20 30 -53 30h-6q-52 -3 -127 -6q-19 0 -189.5 -2t-199.5 -2h-96h-2q-39 0 -65 -32q-26 -34 -27 -79q-4 -113 -37 -278l-135 -727q-19 -115 -54 -218z " />
<glyph unicode="G" horiz-adv-x="1337" d="M106 524q0 -270 132.5 -407t367.5 -142h17q118 0 280 25q29 3 74 6q48 4 81.5 40t39.5 85q2 9 7.5 38t8.5 48l41 203q16 85 35 143q4 12 4 24q0 25 -18 48q-26 33 -68 35q-33 0 -47 2h-3q-37 0 -64 -28q-28 -30 -31 -71q-8 -71 -25 -147l-64 -291q-113 -31 -186 -31 q-50 0 -85.5 7t-65.5 25.5t-47 33.5t-50 49q-96 104 -96 324q0 269 123 481q36 63 76.5 113t75 81t74 53.5t66.5 33.5t61 17t49.5 6.5t39.5 0.5q165 0 252 -65q24 -19 53 -19q8 0 16 1q40 7 58 42q15 25 15 52q0 14 -4 29q-12 43 -54 56q-79 27 -178 37q-76 8 -143 8 q-97 0 -179 -18t-149 -53.5t-118.5 -75t-108.5 -96.5q-119 -121 -191 -307t-72 -396z" />
<glyph unicode="H" horiz-adv-x="1366" d="M61 113q-4 -13 -4 -25q0 -26 18 -48q24 -31 63 -30h5h17q50 0 87.5 33t43.5 82q12 100 33 213l59 350q147 6 285 6q106 0 370 -6l-75 -383q-15 -88 -50 -194q-4 -13 -4 -25q0 -24 14 -44q21 -31 58 -30h2h18h21h3q43 0 75 30t37 75q6 65 26 180l166 889q26 112 41 168 q3 11 3 22q0 22 -14 42q-21 28 -56 28q-6 -2 -23 -2q-2 0 -6.5 1t-7.5 1h-3q-41 0 -73 -32t-37 -79q-5 -49 -10 -71l-74 -414q-135 -6 -270 -6q-185 0 -385 6l57 289q29 148 45 204q3 12 3 23q0 24 -13 46q-19 32 -55 32q-6 -2 -23 -2q-3 0 -10 1t-10 1h-3q-41 0 -71 -30 q-32 -31 -37 -75q-2 -31 -16 -116l-164 -879q-36 -169 -56 -231z" />
<glyph unicode="I" horiz-adv-x="512" d="M59 106q-3 -12 -3 -24q0 -25 16 -46q23 -30 61 -30h2h37q45 0 78.5 31.5t38.5 77.5q11 93 37 231l131 717q35 188 61 278q4 13 4 25q0 24 -16 46q-22 32 -60 32h-2h-22h-23h-2q-39 0 -67 -32q-28 -34 -33 -81q-14 -117 -39 -241l-141 -744q-44 -193 -58 -240z" />
<glyph unicode="J" horiz-adv-x="724" d="M-51 92q-7 -17 -7 -33q0 -19 10 -39q17 -35 54 -38q40 -5 55 -5q229 0 349 117q33 34 56.5 74t43.5 106t30.5 113t32.5 154l101 538q35 183 57 256q4 14 4 27q0 23 -13 44q-20 32 -58 32h-2h-19h-20h-3q-40 0 -70 -29q-31 -30 -36 -74q-7 -63 -33 -202l-86 -463 q-22 -117 -35 -176.5t-37.5 -137.5t-51.5 -113.5t-70.5 -62t-100.5 -26.5q-14 0 -20 2h-13q-36 0 -67 -13q-37 -16 -51 -51z" />
<glyph unicode="K" horiz-adv-x="1236" d="M61 106q38 108 56 218l141 759q30 153 37 252q5 45 38 76t77 31h41h2q35 0 53 -32q11 -21 10 -44q0 -14 -4 -29q-20 -83 -51 -231l-84 -447q164 112 379 332q155 148 215 287q7 14 22 59q13 46 47 77q33 30 75 30h3h17h41h8q36 0 56 -30q13 -19 12 -40q0 -16 -7 -33 q-34 -80 -100 -163q-62 -82 -168 -189t-181 -173l-75 -66q3 -21 6.5 -41t11 -42t12 -37t16.5 -39.5t16.5 -35t20.5 -38.5t20.5 -35.5t24 -41t23.5 -39.5q44 -83 116 -171t147 -160q18 -19 8 -41.5t-35 -22.5q-14 2 -45 2q-138 0 -199 74q-53 58 -149 201q-63 92 -101 170 t-61 168l-215 -181l-35 -217q-3 -17 -16 -112q-6 -46 -42.5 -75.5t-84.5 -29.5h-19h-5q-38 0 -62 30q-17 22 -17 46q0 12 4 24z" />
<glyph unicode="L" horiz-adv-x="937" d="M57 100q-4 -12 -4 -23q0 -23 18 -45q24 -28 59 -28h7q82 4 158 4q137 0 407 -8h3q47 0 85 30q38 31 52 79q4 8 4 14q3 8 3 15q1 16 -15 30q-22 18 -50 10q-91 -31 -243 -31q-67 0 -162 5q-59 4 -69 38q-3 11 -2 28q0 38 14 108l124 696q38 207 74 330q3 10 3 20 q1 24 -17 44q-23 27 -59 26h-5h-20h-16h-7q-39 0 -69 -30q-32 -32 -35 -77q-7 -77 -31 -213l-125 -686q-48 -238 -82 -336z" />
<glyph unicode="M" horiz-adv-x="1675" d="M16 102q-4 -13 -4 -25q0 -21 13 -41q20 -30 55 -30h2h20q50 0 88.5 30.5t42.5 76.5q11 111 41 262l177 887q9 -63 47 -289l110 -582q8 -50 16 -103.5t12 -79.5t7 -46q3 -26 23.5 -45t46.5 -19q34 0 62.5 17t41.5 47q23 45 127 231l510 871l-180 -928q-28 -155 -53 -230 q-4 -13 -4 -26q1 -22 13 -42q19 -30 54 -30h2h33h20h5q41 0 72 28q33 30 34 75q0 6 1 20.5t1 22.5q13 139 143 837q52 269 82 357q4 12 4 23q0 21 -14 41q-20 29 -55 28h-2h-54h-51h-11q-50 0 -92 -24q-48 -26 -73 -73q-66 -135 -127 -235l-280 -479q-78 -133 -127 -226 l-107 611q-38 233 -45 315q-7 49 -45 81q-36 30 -82 30h-6q-18 -2 -59 -2q-40 0 -56 2h-5q-38 0 -68 -27q-30 -29 -31 -72q-3 -145 -80 -507q-7 -35 -45 -192.5t-64 -252.5q-50 -186 -86 -287z" />
<glyph unicode="N" horiz-adv-x="1366" d="M35 106q-4 -11 -4 -22q1 -24 17 -44q24 -30 61 -30h22h8q39 0 71 28q34 30 38 75q7 118 51 383q83 518 121 761q50 -152 166 -413l198 -449q106 -241 129 -309q13 -37 48.5 -58.5t78.5 -23.5h3q37 0 65 26q28 27 33 68q0 7 4 31q9 82 57 350l92 461q60 276 105 401 q5 14 5 26q0 22 -14 43q-22 32 -61 32h-10q-45 0 -77.5 -32.5t-37.5 -78.5q-8 -78 -28 -190l-76 -418q-2 -12 -53 -328q-8 -52 -13 -102q-45 122 -131 319l-235 539q-57 127 -74 176q-16 51 -55 83q-38 32 -87 32h-3h-64h-25q-42 0 -69 -34t-27 -79q0 -136 -47 -389 q-120 -647 -182 -834z" />
<glyph unicode="O" horiz-adv-x="1492" d="M102 522q0 -243 123 -379q80 -89 192.5 -128.5t229.5 -39.5q123 0 231.5 37t189.5 99t148 145t111.5 173.5t75 187t44 183t13.5 163.5q0 243 -135 375t-393 132q-248 0 -447 -141q-94 -69 -166.5 -162t-112 -180.5t-64.5 -182.5t-32.5 -160t-7.5 -122zM328 518 q0 82 14.5 170.5t42.5 181.5t76 175t110 147t149.5 103t188.5 38q140 0 219 -67q105 -91 105 -318q0 -67 -9 -141t-30.5 -156.5t-52 -159.5t-77.5 -147.5t-104.5 -123t-135 -83.5t-165.5 -31q-81 2 -157.5 37.5t-118.5 108.5q-30 52 -42.5 128.5t-12.5 137.5z" />
<glyph unicode="P" horiz-adv-x="1110" d="M57 111q-4 -13 -4 -26q0 -23 15 -45q23 -34 63 -34h25h10q47 0 81 32.5t40 80.5q1 5 10 74l68 385q59 -9 133 -9q127 0 230.5 26.5t170 66.5t116.5 96.5t75.5 108t40.5 108.5t18.5 90.5t3.5 62.5q0 324 -399 324q-28 0 -146 -4q-122 -4 -178 -4h-35h-2q-39 0 -67 -32 q-28 -34 -33 -81q-12 -114 -45 -289l-113 -612q-47 -223 -78 -319zM387 721l59 319q3 14 20.5 94t41.5 185q26 1 55.5 2t45.5 1.5t28 0.5q31 0 49.5 -0.5t53.5 -4.5t57 -11.5t50 -22.5t44 -36.5t27.5 -55t11.5 -76.5q0 -36 -8 -79t-27.5 -96t-61.5 -101.5t-100 -77.5 q-60 -28 -142 -36q-60 -6 -140 -6q-31 0 -64 1z" />
<glyph unicode="Q" horiz-adv-x="1492" d="M104 520q0 56 7.5 121.5t33 160.5t65 182.5t112.5 180.5t167 162q194 141 445 141q258 0 393 -132t135 -375q0 -107 -25 -227.5t-84.5 -255.5t-144.5 -238q-161 -182 -209 -478q-1 -4 -2 -37.5t-6.5 -54.5t-19.5 -30q-10 -6 -19 -6q-2 -1 -3 -1q-8 0 -13 3 q-7 3 -14.5 12.5t-11.5 15.5t-10.5 18t-8.5 15q-33 52 -41 105q-5 28 -5 53q0 23 3 43q8 43 29 110q-123 -35 -226 -35q-118 0 -231 39.5t-193 128.5q-123 139 -123 379zM332 516q0 -168 55 -266q41 -74 117.5 -110t157.5 -36q116 0 225 64q92 56 162.5 151t109 204.5 t57.5 216t19 206.5q0 227 -105 318q-79 67 -219 67q-103 0 -199 -44t-165 -122q-106 -121 -160.5 -303.5t-54.5 -345.5z" />
<glyph unicode="R" horiz-adv-x="1193" d="M61 104q-4 -12 -4 -24q0 -22 16 -44q24 -32 64 -32q4 2 10 2q4 0 12.5 -1t12.5 -1q45 0 78 33t39 80q1 5 2 17t2 18l76 450h196q25 -166 99 -311q68 -135 112 -201q54 -84 189 -84q9 0 27 -1t24 -1h2q28 0 36 29q8 30 -14 53q-253 273 -276 547q50 13 86.5 26t91 45 t100.5 78q46 45 77.5 97.5t44.5 100t17.5 78.5t4.5 56q0 76 -32 152t-105 123q-95 57 -295 57q-18 0 -43.5 -0.5t-75 -1.5t-107.5 -2h-129h-2q-39 0 -67 -32q-28 -33 -33 -79q-8 -87 -27 -184l-133 -717q-48 -239 -76 -326zM397 750l49 264q38 197 62 286q135 15 174 15 q270 0 270 -219q0 -34 -10 -74t-31.5 -85t-63 -85.5t-97.5 -63.5q-87 -40 -246 -40q-26 0 -63.5 1t-43.5 1z" />
<glyph unicode="S" horiz-adv-x="1067" d="M41 129q-6 -20 -6 -39q0 -24 9 -46q17 -42 58 -52q94 -23 181 -23q245 0 415 105q35 21 71.5 52.5t80 81t71 118t27.5 141.5q0 40 -8 73.5t-26.5 62t-35 48.5t-49.5 43.5t-52.5 35.5t-59.5 36l-121 70q-41 23 -64 38.5t-54.5 43.5t-46.5 63t-15 78q0 29 9.5 62.5 t34.5 70.5t61.5 66.5t96 49t132.5 19.5q121 0 202 -45q19 -12 39 -12q13 0 25 5q34 12 43 46q4 16 4 31q0 26 -12 52q-19 40 -60 48q-103 21 -190 21q-144 0 -261 -43t-187 -112t-107 -148.5t-37 -159.5q0 -57 16.5 -103t51 -82.5t63 -58t76.5 -51.5l116 -70 q112 -65 157.5 -111t45.5 -118q0 -130 -105.5 -209.5t-262.5 -79.5q-93 0 -172 27q-29 12 -35 16q-20 11 -42 11q-14 -1 -28 -5q-37 -12 -49 -47z" />
<glyph unicode="T" d="M172 1360q-2 -8 -2 -16q0 -23 18 -42q24 -25 56 -16q70 19 202 19h177q-44 -258 -64 -367l-92 -504q-48 -236 -78 -332q-4 -12 -4 -23q0 -23 19 -43q26 -28 64 -28h5h29q45 0 80 28.5t39 72.5q12 115 45 294l94 523q56 286 80 379h235q55 0 84 -5q10 -1 19 -1 q28 -1 56 11q36 16 44 50q1 8 1 16q0 28 -20 50q-24 26 -60 26h-5q-17 -1 -60.5 -2t-64.5 -2h-678q-59 0 -82 2h-7q-44 0 -80 -22q-40 -24 -50 -68z" />
<glyph unicode="U" horiz-adv-x="1366" d="M131 214q19 -84 94 -144q118 -95 342 -95q226 0 367 72q150 73 207 234q17 43 30 99.5t46 227.5l108 584q17 89 37 154q4 13 4 25q0 23 -15 43q-23 32 -61 32q-45 0 -78 -29.5t-36 -73.5q-3 -34 -25 -163l-102 -557q-41 -211 -68 -284.5t-84 -119.5q-95 -80 -268 -80 q-71 0 -150 29t-110 82q-12 20 -19 46t-9.5 46t-0.5 56.5t4 50.5t8.5 57t7.5 49l127 686q3 20 25 105q4 13 4 24q0 22 -14 42q-22 30 -58 30h-28h-15q-43 0 -72 -33.5t-34 -79.5q-1 -4 -2 -12t-2 -12l-156 -891q-13 -64 -13 -118q0 -44 9 -82z" />
<glyph unicode="V" horiz-adv-x="1280" d="M190 1346q31 -103 56 -271l104 -680q21 -139 37 -284q4 -46 44 -75.5t89 -29.5h15q55 0 101 27.5t69 77.5q62 131 276 522l285 518q81 146 123 203q11 15 11 31q0 12 -6 24q-14 29 -46 29h-13q-37 0 -53 2h-3q-48 0 -87 -30q-40 -31 -55 -81q-27 -89 -121 -278 q-64 -125 -192 -374t-191 -374q-4 -11 -30 -64t-28 -57l-112 867q-27 190 -27 284v6q0 41 -28 71q-27 30 -67 30h-7q-18 -2 -49 -2h-23h-5q-35 0 -55 -28q-16 -20 -15 -43q0 -10 3 -21z" />
<glyph unicode="W" horiz-adv-x="1849" d="M188 1343q-2 9 -2 18q0 29 22 53q27 29 66 28h5h24h14h3q42 0 71 -32q27 -30 27 -67v-8q-2 -44 -2 -88.5t2 -87.5l26 -573q2 -45 23 -400l348 766q77 179 117 295q16 47 62 72t102 27h6q40 0 68 -28q29 -29 28 -70l-2 -71q0 -107 10 -245l56 -746l77 179 q164 380 251 600.5t126 373.5q14 45 54 73q38 26 82 26h6h24q25 0 35 2q32 0 48 -28q8 -14 8 -27q0 -14 -9 -29q-33 -51 -104 -205l-334 -737q-59 -132 -99 -234q-4 -13 -13.5 -36.5t-12.5 -34.5q-19 -51 -65 -79q-43 -27 -94 -26h-7q-4 0 -12.5 1t-12.5 1q-6 0 -18 -1 t-18 -1h-6q-41 0 -73 28q-34 30 -34 74q0 110 -10 261l-25 348q-6 101 -9.5 192.5t-4.5 104.5q-52 -128 -109 -246q-26 -52 -61 -122.5t-50.5 -102.5t-39 -81.5t-44.5 -99t-49 -116.5q-38 -98 -55 -140q-20 -46 -66 -74q-42 -26 -91 -26h-7q-8 2 -22 2q-6 0 -19.5 -1 t-19.5 -1h-7q-41 0 -71 32q-33 34 -33 81q1 17 1 40q0 52 -5 130l-45 774q-16 210 -31 282z" />
<glyph unicode="X" horiz-adv-x="1236" d="M-34 30q12 -26 40 -26h29h20q57 0 108.5 23.5t82.5 66.5q33 43 131 164l246 305l116 -250q59 -127 86 -202q19 -48 63 -77q42 -28 92 -28h3h25h24q38 0 60.5 28.5t5.5 59.5l-6 12q-136 263 -140 271l-182 368l483 545q50 55 78 84q13 13 13 28q0 7 -4 15q-10 24 -35 23 q-12 -2 -37 -2h-25h-8q-48 0 -92 -22q-47 -24 -78 -66q-62 -86 -127 -166l-240 -299l-133 297q-51 119 -61 153q-18 48 -54 79q-32 28 -71 28h-8q-20 -2 -60 -2h-28q-34 1 -50.5 -28t0.5 -58q44 -71 84 -158l234 -483l-324 -375q-151 -166 -252 -262q-13 -13 -13 -28 q0 -9 4 -18z" />
<glyph unicode="Y" horiz-adv-x="1110" d="M124 36q5 -28 44 -28h18h33h7q38 0 90 28q56 31 92 73l286 419l467 684q73 108 115 158q9 12 9 24t-7 24q-17 24 -47 24h-35h-25q-50 0 -91.5 -26.5t-63.5 -72.5q-15 -33 -37.5 -73.5t-58.5 -99.5t-65.5 -105.5t-88 -138.5t-96.5 -152l-37 -57l-150 495q-22 72 -32 125 q-9 45 -41 77q-32 30 -71 30h-3q-14 -2 -41 -2t-41 2h-2q-35 0 -52 -31q-11 -18 -11 -37q0 -15 6 -30q30 -72 45 -115q3 -12 24 -69.5t23 -63.5l180 -559q-67 -147 -158 -260q-10 -13 -77 -88.5t-78 -90.5q-31 -32 -31 -57q0 -4 1 -7z" />
<glyph unicode="Z" horiz-adv-x="1110" d="M-33 32q13 -32 47 -30q164 6 346 6q230 0 480 -8h3q51 0 93 32t61 85l4.5 13.5t6.5 16.5t6 15q9 23 -9.5 38.5t-43.5 6.5q-52 -20 -121 -31q-105 -18 -262 -18q-105 0 -160.5 5.5t-68.5 13t-13 20.5q0 20 47 88q238 349 655 909q60 79 119 152q15 19 15 39q0 12 -4 24 q-13 33 -48 34q-1 0 -2 -1q-234 -4 -373 -4q-219 0 -440 4q-1 0 -3 1q-48 0 -85 -33q-38 -33 -47 -85q-6 -32 21.5 -51t60.5 -10q37 12 90 17.5t93 6t143 0.5h264q-56 -95 -178 -269.5t-199 -279.5q-247 -349 -488 -647q-15 -18 -15 -37q0 -11 5 -23z" />
<glyph unicode="[" horiz-adv-x="727" d="M139 -272q27 87 74 307l233 1184q1 9 14.5 88.5t18.5 119.5q6 49 39.5 83t79.5 34h217q14 0 23 -12t6 -25q-3 -15 -15.5 -26t-29.5 -11h-164l-350 -1783h161q14 0 23 -12t6 -25q-3 -17 -15.5 -27t-29.5 -10h-217q-42 0 -65 36.5t-9 78.5z" />
<glyph unicode="\" horiz-adv-x="837" d="M111 1386q-9 21 9 39.5t44 20.5q33 3 58 -11.5t34 -43.5q40 -143 60 -202.5t77 -213.5q111 -291 117 -305q83 -214 94 -244q46 -117 60.5 -154t37 -86.5t56.5 -117.5q8 -20 -8 -40.5t-41 -21.5q-33 -1 -56.5 16.5t-31.5 47.5q-12 53 -43 120l-390 1010q-64 158 -77 186z " />
<glyph unicode="]" horiz-adv-x="747" d="M-88 -350q5 16 17.5 26.5t29.5 10.5h160l352 1783h-162q-15 0 -24 11.5t-6 25.5q10 37 47 37h213q41 0 66 -33t13 -71q-29 -87 -79 -320l-232 -1183q-32 -204 -33 -209q-5 -47 -37.5 -81t-78.5 -34h-215q-14 0 -24 11t-7 26z" />
<glyph unicode="^" horiz-adv-x="1492" d="M430 778l305 598q17 32 47.5 51t67.5 19q36 0 67 -19t46 -51l290 -596q15 -31 -3 -60.5t-52 -29.5q-46 0 -84.5 24.5t-58.5 65.5l-209 441l-219 -443q-20 -40 -59 -64t-83 -24q-34 0 -52 29.5t-3 58.5z" />
<glyph unicode="_" horiz-adv-x="1075" d="M-70 -205q-3 -22 9 -36.5t34 -14.5h963q22 0 39 14.5t20 36.5q4 21 -8 36t-33 15h-962q-22 0 -40 -14.5t-22 -36.5z" />
<glyph unicode="`" horiz-adv-x="468" d="M98 1419q-9 38 10.5 64t53.5 26q47 0 67.5 -24t34.5 -74q15 -58 109 -125q31 -19 32 -39q1 -14 -16 -14q-79 0 -164 49q-71 54 -92.5 77t-34.5 60z" />
<glyph unicode="a" horiz-adv-x="1110" d="M43 324q0 -84 25.5 -151t68 -108t95 -62t110.5 -21q45 0 90 20t79.5 47t74 72t64 78.5t59 83t49.5 69.5q0 -11 -16.5 -113t-20.5 -147v-7q1 -33 25 -57q26 -25 60 -24h5q38 2 67 26t29 60q0 118 45 371l37 203q40 219 74 362q2 10 2 19q-1 27 -19 49q-18 21 -41 21 q-9 0 -20 -3l-47 -16q-42 16 -67.5 24t-67 15.5t-84.5 7.5q-184 0 -336 -115q-86 -64 -152 -151t-100 -165.5t-55.5 -162.5t-27 -135t-5.5 -90zM248 399q0 40 6 88.5t20.5 108.5t36.5 117.5t57 112.5t78.5 96.5t105 66.5t132.5 25q67 0 174 -33l-53 -285 q-28 -150 -59.5 -244.5t-75.5 -158.5q-96 -139 -238 -139q-95 0 -139.5 66t-44.5 179z" />
<glyph unicode="b" horiz-adv-x="1110" d="M61 150q-6 -23 -6 -46q1 -27 9 -52q16 -47 61 -58q87 -23 199 -23q270 0 450 162t252 434q33 132 33 221t-25 158.5t-68 111t-96 62.5t-112 21q-45 0 -90 -20t-79 -48.5t-69.5 -70t-57 -73t-46.5 -70.5t-33 -50l55 332q13 67 27.5 146t19.5 102q1 7 2 13q0 28 -26 46 q-23 16 -50 16q-10 0 -20 -2q-39 -9 -72 -12q-35 -4 -53 -36q-15 -27 -14 -59v-12q4 -24 4 -45q0 -119 -70 -516l-71 -389q-34 -164 -54 -243zM262 115q13 112 22.5 178.5t29.5 176t48.5 193.5t65.5 144q44 73 108.5 116.5t135.5 43.5q95 0 139.5 -70t44.5 -178 q0 -31 -3.5 -71.5t-16 -102.5t-32 -120.5t-55.5 -119.5t-83 -106t-117.5 -74t-155.5 -29q-57 0 -131 19z" />
<glyph unicode="c" horiz-adv-x="854" d="M61 428q0 -210 128.5 -331.5t353.5 -121.5q44 0 102 7q39 5 71.5 29.5t45.5 60.5q8 24 -4.5 44.5t-34.5 14.5q-64 -22 -137 -22q-103 0 -174 47q-129 83 -129 286q0 107 30.5 207.5t85.5 179.5t139.5 127t184.5 48q47 0 94 -15q19 -9 40 -9q12 0 24 3q34 8 45 37 q8 18 8 37q0 13 -4 29q-10 34 -43 42q-69 15 -133 15q-136 0 -252 -44t-196 -116t-136.5 -165.5t-82.5 -192.5t-26 -197z" />
<glyph unicode="d" horiz-adv-x="1110" d="M45 330q0 -167 87 -257.5t218 -90.5q53 0 102.5 24.5t93.5 71.5t73.5 85.5t68 97.5t51.5 77q-23 -115 -37 -227q-1 -7 -1 -13q0 -35 27 -62q32 -32 77 -32q38 1 63 32.5t27 72.5q0 32 3 68.5t9 81.5t10.5 74.5t14 84.5t12.5 74l111 618q51 264 51 266q1 7 1 13 q0 27 -24 47q-22 18 -50 18q-9 0 -19 -2q-13 -4 -43 -8q-36 -4 -57 -38q-19 -32 -19 -70v-7v-12q0 -54 -27 -205q-94 27 -153 27q-130 0 -252 -63.5t-211 -170.5q-66 -79 -111.5 -175t-64 -180t-25 -135t-6.5 -85zM250 397q0 37 8.5 91t26.5 125.5t53 140t81.5 127.5t118 95 t156.5 36q58 0 152 -27q-65 -330 -93.5 -445.5t-70.5 -199.5q-51 -100 -119.5 -146.5t-132.5 -46.5q-84 0 -132 70t-48 180z" />
<glyph unicode="e" horiz-adv-x="991" d="M66 428q2 -103 20.5 -179t62.5 -139.5t125.5 -98t200.5 -38.5q86 0 193 21q36 9 62.5 39t37.5 69q6 23 -9.5 40t-35.5 8q-100 -41 -201 -41q-64 0 -112 18.5t-73.5 48.5t-41.5 66t-19 72.5t-3 66.5t3 49l3 19q112 4 163 7.5t133 21t150 50.5q132 66 197 168q65 97 65 207 q0 109 -75.5 177.5t-215.5 68.5q-114 0 -237 -55.5t-221 -175.5q-65 -81 -118.5 -209.5t-53.5 -280.5zM285 496q14 111 50 228.5t97 186.5q101 117 219 117q58 0 97.5 -35t39.5 -100q0 -110 -98 -205q-200 -189 -405 -192z" />
<glyph unicode="f" horiz-adv-x="555" d="M-307 -389q-5 -14 -5 -27q0 -17 9 -34q15 -29 45 -29h2q86 3 158.5 31t122 67.5t91 100.5t65.5 112t44 122t28 110t17 94q6 34 18.5 100t18.5 100l111 662h67q84 0 111 -2q31 0 55.5 15.5t28.5 43.5q6 27 -12.5 48.5t-46.5 21.5q-11 0 -35 -1t-39 -1h-105q12 63 24 110 t31 94.5t41 78.5t54.5 51.5t71.5 23.5q100 4 122 62q6 14 6 27q0 18 -11 35q-18 28 -52 28h-2q-154 -8 -268 -90q-80 -60 -126 -154.5t-75 -265.5h-18q3 1 0 1q-2 1 -7 1q-26 3 -47.5 -12.5t-27.5 -40.5q-5 -28 8.5 -51t38.5 -23h14h10l-116 -715q-44 -244 -75 -361.5 t-83 -181.5q-55 -77 -152 -86q-88 -4 -110 -65z" />
<glyph unicode="g" horiz-adv-x="1110" d="M-23 -460q15 -34 50 -40q61 -12 149 -12q194 0 338 55q47 17 86.5 40t70 47t56.5 57t44.5 62.5t35 71.5t27.5 76t22 85t18.5 88.5t17.5 95.5q1 4 1 6l96 530q39 218 68 320q2 10 2 20q0 25 -17 46q-24 28 -57 16q-7 -4 -43 -17q-2 1 -20.5 9t-24 10t-23.5 8.5t-27.5 9 l-28.5 7.5t-33.5 7t-34 3.5t-39.5 1.5q-126 0 -236 -52.5t-187 -137.5t-133.5 -192t-83 -216.5t-26.5 -210.5q0 -133 53 -217q38 -62 104 -98.5t150 -36.5q48 0 95.5 22.5t83 54t73 79t59.5 82t48.5 79t33.5 55.5q-50 -270 -88.5 -402.5t-105.5 -195.5q-110 -118 -313 -118 q-75 0 -138 18q-16 6 -33 6q-18 0 -36 -8q-34 -13 -51 -47q-10 -17 -10 -36q0 -15 7 -31zM248 406q0 39 5 85t18 106t33.5 116t54.5 111t77.5 96t106.5 66.5t137 25.5q86 0 176 -41q-66 -333 -100 -460t-88 -210q-44 -65 -105.5 -105t-130.5 -40q-96 0 -147 82 q-37 58 -37 168z" />
<glyph unicode="h" d="M49 102q-3 -11 -3 -22q0 -24 16 -44q22 -30 59 -30q50 0 87 32t44 81q23 178 78 432q57 234 147 328q47 52 109 80t127 28q49 0 81 -14t48 -35q16 -22 20 -56q3 -21 2 -40q0 -13 -1 -25q-3 -31 -11 -76l-80 -465q-19 -110 -35 -170q-3 -10 -3 -20q0 -26 20 -48 q26 -30 67 -30q46 0 81 30.5t38 74.5q8 83 18 151l80 459q27 156 27 203q0 113 -74.5 168t-183.5 55q-120 0 -225 -68q-44 -26 -84 -81.5t-76.5 -124t-44.5 -80.5l67 368q9 44 43 213q2 9 2 17q0 27 -23 47t-51 20q-9 0 -18 -2q-26 -5 -69 -8q-32 -4 -46 -34 q-13 -27 -12 -60v-10v-9q0 -90 -55 -381l-104 -573q-41 -213 -62 -281z" />
<glyph unicode="i" horiz-adv-x="468" d="M55 113q-4 -13 -4 -25q-1 -24 15 -46q22 -32 59 -32h2h16q44 0 78 27t37 69q11 132 59 398l60 334q7 41 14 77.5t14 67.5t9 43q2 9 2 18q0 27 -19 48.5t-44 21.5q-8 0 -17 -2q-42 -7 -76 -12q-34 -4 -48 -36q-13 -29 -13 -63v-10v-9q0 -107 -66 -472l-37 -201 q-10 -57 -41 -196zM242 1346q0 -52 29.5 -79.5t70.5 -27.5q63 0 102 56t39 114q0 49 -28 74.5t-70 25.5q-67 0 -105 -54t-38 -109z" />
<glyph unicode="j" horiz-adv-x="468" d="M-297 -410q-3 -11 -3 -21q0 -20 12 -39q15 -24 42 -24h6q226 16 336 148q51 63 83.5 170t70.5 295l133 706q0 1 37 199q2 9 2 17q0 26 -20 47q-21 21 -48 21q-7 0 -14 -1q-31 -7 -82 -14q-34 -3 -52 -34q-16 -29 -16 -63v-8q3 -6 3 -14q0 -133 -64.5 -495t-114.5 -541 q-37 -130 -81.5 -197.5t-122.5 -77.5q-37 -3 -67 -22.5t-40 -51.5zM240 1339q0 -52 29.5 -79t70.5 -27q63 0 102 56t39 114q0 49 -28 74.5t-70 25.5q-46 0 -80 -29t-48.5 -65t-14.5 -70z" />
<glyph unicode="k" horiz-adv-x="1013" d="M53 102q-3 -10 -3 -19q0 -25 20 -45q28 -28 69 -28q45 0 81 29t40 72q0 8 4 32q3 25 3 46q-1 11 -1 21q-2 28 1 53t18 38l215 191q27 -92 52 -158t52.5 -113.5t43.5 -70.5t48 -64q34 -41 84 -63q44 -19 92 -19h13h18q28 0 35.5 26.5t-14.5 45.5q-37 32 -60.5 56 t-55.5 66.5t-61 101t-55 136.5q-41 112 -55 193q118 106 305 387q10 15 10 30q0 18 -14 36q-28 32 -72 32h-22h-2q-40 0 -70 -32q-30 -33 -47 -83q-2 -5 -6 -14t-6 -14q-54 -119 -165 -248t-222 -209l90 494q40 230 69 362q2 9 3 18q0 26 -22 46q-21 21 -48 22q-8 0 -17 -2 q-25 -7 -71 -10q-32 -3 -45 -34q-11 -27 -11 -62v-11q1 -6 1 -14q0 -34 -11 -94l-141 -789q-39 -220 -64 -317q-1 -3 -3 -10.5t-3 -10.5z" />
<glyph unicode="l" horiz-adv-x="585" d="M96 238q-1 -14 -1 -28q0 -214 208 -216q51 0 100 6q40 5 72 28.5t45 59.5q4 10 4 20q0 14 -8 26q-12 20 -35 13q-5 -2 -18 -5.5t-17.5 -5t-15 -4t-18 -3t-18.5 -1.5t-23 -1q-28 2 -48.5 21t-26.5 37l-7 18q-7 7 -4 47.5t7 67t12.5 77.5t12.5 80l95 553q14 70 28.5 148.5 t23 123.5t15.5 78q1 8 1 15q0 29 -22 49q-21 20 -47 20q-9 0 -18 -2q-37 -10 -67 -12q-34 -4 -50 -37q-15 -29 -14 -64v-8v-10q0 -101 -55 -416q-28 -163 -45.5 -260t-22 -123.5t-9.5 -54t-11 -59.5q0 -7 -10.5 -72t-12.5 -106z" />
<glyph unicode="m" horiz-adv-x="1640" d="M55 106q-3 -11 -3 -22q0 -24 16 -44q21 -28 54 -28h5h16q45 0 79.5 30.5t37.5 74.5q11 117 45 310t68 288q46 128 126 198t173 70q61 0 76.5 -28t15.5 -109q0 -74 -37 -283l-25 -143q-40 -223 -63 -309q-3 -10 -3 -20q0 -27 20 -49q27 -30 69 -30q45 0 80 29.5t39 73.5 q10 120 40 294.5t70 288.5q29 78 68.5 136t82.5 88.5t83 44.5t80 14q43 0 63.5 -28t20.5 -107q0 -43 -25 -193l-63 -362q-21 -115 -41 -182q-3 -11 -3 -22q0 -25 16 -47q21 -30 56 -30h2h17q46 0 81 32t38 79q9 134 40 299l64 350q22 119 22 170q0 52 -16.5 91.5t-40 61 t-55 35t-56.5 17.5t-49 4q-47 0 -94.5 -19.5t-70.5 -37t-41 -35.5q-77 -80 -168 -252q0 3 -3 36t-5 51t-9.5 54.5t-17 59.5t-26.5 53t-38.5 47.5t-53.5 30t-71 12.5q-68 0 -124.5 -31.5t-81.5 -60.5q-21 -22 -48.5 -62.5t-43.5 -68t-43.5 -77.5t-28.5 -52q7 29 25.5 122 t23.5 115q1 7 1 13q-1 27 -25 47q-23 18 -49 18q-9 0 -19 -2q-6 -1 -27.5 -4t-34.5 -4q-34 -4 -50 -37q-14 -29 -13 -66v-10v-16q0 -61 -19 -166l-90 -514q-23 -128 -39 -187z" />
<glyph unicode="n" d="M53 100q-3 -10 -3 -19q0 -23 18 -43q24 -26 60 -26h5h17q44 0 77.5 27.5t36.5 69.5q3 62 17 149l36 240q12 76 21.5 122.5t35 113.5t60.5 112q45 60 119.5 100.5t144.5 40.5q30 0 53 -3t41 -11t31 -16.5t21 -26t13 -32t5 -42.5t-1 -49t-6.5 -59.5t-10 -67t-13.5 -78.5 l-24 -137q-44 -253 -76 -365q-2 -10 -2 -19q0 -25 17 -45q22 -27 56 -26h5h18q45 0 78.5 29.5t36.5 73.5q7 114 51 358l51 287q25 136 25 178q0 60 -24.5 103.5t-65.5 66.5t-84 33t-90 10q-154 0 -287 -102q-26 -21 -54 -69t-54 -103t-39 -74q3 18 47 243q1 7 1 14 q0 27 -21 48q-21 20 -47 20q-8 0 -17 -2q-47 -8 -70 -10q-33 -4 -48 -34q-13 -27 -13 -61v-9v-13q0 -80 -31 -266l-66 -385q-22 -150 -51 -246z" />
<glyph unicode="o" d="M53 397q0 -210 117 -317q112 -103 289 -103q107 0 200.5 35.5t162 96.5t122.5 139t87 166t50 175t17 169q0 183 -101 282q-102 105 -301 105q-125 0 -232.5 -46t-181.5 -122t-127 -174t-77.5 -201.5t-24.5 -204.5zM258 373q0 38 5 86.5t18.5 111t33.5 123t53 119 t73.5 103t98.5 71.5t126 27q94 0 155 -56q68 -63 68 -192q0 -27 -3.5 -68t-15 -105.5t-29.5 -128t-50 -129.5t-73.5 -115.5t-104 -81.5t-136.5 -32q-96 0 -157.5 65t-61.5 202z" />
<glyph unicode="p" horiz-adv-x="1110" d="M-63 -430q-3 -10 -3 -19q0 -24 20 -44q26 -27 66 -27h19h7q39 0 66 30q30 32 35 78q6 62 23 162l47 260q115 -24 193 -24q113 0 218 47t189 131q112 112 180 293t68 348q0 163 -72.5 250.5t-197.5 87.5q-120 0 -217 -70q-47 -34 -90.5 -98.5t-83.5 -142t-52 -95.5l60 293 q1 7 1 14q0 27 -22.5 47t-51.5 20q-7 0 -15 -1q-38 -8 -76 -10q-30 -3 -43 -32q-11 -23 -11 -51q0 -6 1 -13q1 -13 1 -30q0 -62 -18 -167q-19 -121 -41 -240l-129 -669q-54 -270 -71 -328zM248 172q55 304 92 424q53 173 145 273t193 100q90 0 134 -63.5t44 -160.5 q0 -117 -37.5 -262.5t-118.5 -240.5q-99 -121 -266 -121q-43 0 -81.5 9t-56.5 17.5t-48 24.5z" />
<glyph unicode="q" horiz-adv-x="1110" d="M49 344q0 -188 103 -287q80 -77 200 -77q131 0 234 88q41 36 76.5 97t68 136.5t37.5 85.5q-5 -25 -51 -269.5t-66 -330.5q-2 -8 -37 -158q-2 -9 -2 -17q0 -29 23 -52q28 -27 67 -27h5q48 2 84.5 33.5t39.5 77.5q13 204 35 354t88 508q72 374 127 555q3 9 3 17 q0 21 -19 36q-26 22 -57 8l-56 -24q-60 29 -110 41q-69 14 -125 14q-306 0 -508 -291q-85 -121 -122.5 -265.5t-37.5 -252.5zM248 424q0 109 44 252t122 225q111 121 286 121q62 0 170 -35l-59 -285q-19 -92 -37.5 -159.5t-60 -158t-92.5 -140.5q-37 -37 -89.5 -61.5 t-89.5 -24.5q-50 0 -87 17t-57 42.5t-31.5 63t-15 70t-3.5 73.5z" />
<glyph unicode="r" horiz-adv-x="681" d="M53 106q-3 -10 -3 -20q0 -24 20 -46q26 -30 65 -30h10h3q42 0 74 30q33 30 38 75q7 100 35.5 265.5t52.5 248.5q39 141 113 217t157 96q51 12 90.5 39t53.5 68q4 13 4 25q0 22 -14 41q-16 23 -41 23q-8 0 -17 -3q-52 -17 -110 -56q-37 -25 -74.5 -71.5t-60.5 -85 t-53 -92.5t-40 -70q9 51 34 156.5t26 111.5q1 7 1 14q0 28 -23 48q-22 18 -49 18q-9 0 -19 -2q-16 -2 -56 -6q-34 -4 -52 -36q-15 -28 -15 -61v-12v-15q0 -72 -25 -212l-100 -555q-4 -28 -25 -103z" />
<glyph unicode="s" horiz-adv-x="768" d="M-33 123q-6 -18 -6 -35q1 -25 13 -49q20 -40 63 -49q64 -15 145 -15q211 0 344 95q82 60 120 140t38 157q0 46 -13 82.5t-39.5 63.5t-44.5 41t-48 32l-105 63q-38 21 -58.5 34t-46 35t-37 48.5t-11.5 58.5q0 68 66 125.5t175 57.5q64 0 119 -25q19 -10 40 -10q12 0 25 3 q35 9 50 40q7 18 7 35q1 19 -7 37q-16 36 -54 42q-58 15 -131 15q-202 0 -325 -92q-74 -57 -118 -132t-44 -159q0 -40 12.5 -75.5t28.5 -58.5t43 -47t42 -33.5t40 -25.5l127 -73q59 -35 90 -67t31 -81q0 -69 -66.5 -121.5t-181.5 -52.5q-104 0 -176 33q-18 10 -38 10 q-12 0 -26 -4q-34 -10 -43 -43z" />
<glyph unicode="t" horiz-adv-x="598" d="M86 168v19q0 57 18 137l134 684l-19 2q-26 0 -42 20.5t-11 46.5q5 30 27 50.5t51 17.5l20 -2q17 96 21 145q4 51 38 89t85 50q9 2 18 2q24 1 46 -17t22 -42q0 -8 -2 -16q-30 -110 -48 -211q25 1 81 2t75 2q28 1 46 -21q13 -17 13 -37q0 -7 -2 -14q-7 -31 -35 -50t-63 -19 q-41 2 -143 2q-3 -15 -43.5 -220t-55.5 -282q-38 -175 -38 -258q0 -113 118 -113q32 0 56 6t39.5 -13t9.5 -44q-9 -40 -37 -69t-66 -33q-16 -2 -49 -2q-81 0 -140.5 23t-84.5 56q-35 47 -39 109z" />
<glyph unicode="u" horiz-adv-x="1110" d="M66 201q0 -107 72.5 -164t180.5 -57q129 0 230 71q40 28 76.5 84.5t66.5 119t39 75.5q-26 -146 -29 -221v-8q0 -38 28 -67q31 -32 75 -32q40 0 68.5 28.5t27.5 67.5v17q0 108 70 499q46 264 92 426q3 9 3 18q0 22 -19 40q-21 21 -49 21q-6 0 -13 -1q-6 -1 -22 -4t-25 -4 q-41 -7 -66.5 -43t-27.5 -82q-3 -82 -35 -252q-60 -312 -127 -428q-31 -51 -70.5 -86t-78.5 -49t-64.5 -18.5t-48.5 -4.5q-79 0 -114.5 40.5t-35.5 105.5q0 56 31 196l59 302q23 108 54 229q3 11 3 22q1 26 -19 48q-21 23 -50 22q-9 0 -18 -2q-8 -1 -24.5 -4t-24.5 -4 q-38 -6 -58.5 -42t-23.5 -83q-3 -36 -15 -98l-102 -545q-16 -101 -16 -133z" />
<glyph unicode="v" horiz-adv-x="1067" d="M145 1020q18 -61 33 -141q25 -118 49 -261l58 -342q16 -106 22 -159q6 -47 43.5 -79t87.5 -32q56 0 102.5 25t67.5 71q29 64 68 138l61 122q116 234 155 309t116 212q46 82 82 139q9 15 9 30q0 16 -10 32q-20 30 -57 30q-50 0 -90 -29.5t-55 -76.5q-21 -77 -103 -254 l-290 -594q-36 198 -55 316.5t-46 340.5q-12 105 -16 189q-3 45 -33 76q-30 30 -69 30h-3h-24h-25h-5q-36 0 -60 -27q-17 -20 -17 -43q0 -10 4 -22z" />
<glyph unicode="w" horiz-adv-x="1536" d="M154 1004q-1 8 -1 16q0 34 22 62q26 34 67 34h2h18q48 0 80 -32q30 -29 29 -68v-8q-4 -70 -4 -150l6 -489q0 -59 1 -114t1 -77q23 51 65 149.5t52 121.5l126 301q29 61 64 149q17 44 58.5 69t93.5 27q15 2 27 -20t19.5 -68t13 -101t10 -134.5t7.5 -153.5t8.5 -172.5 t10.5 -177.5l258 627q54 144 74 217q12 48 53.5 75t95.5 29h2q31 0 48 -28q8 -14 8 -29t-9 -29q-12 -20 -71 -141l-330 -735q-3 -6 -8.5 -18.5t-8.5 -18.5q-19 -51 -63 -81q-41 -28 -91 -28h-7h-19q-48 0 -83 32t-36 79q-6 268 -24 581l-139 -362q-71 -168 -93 -234 q-17 -48 -61 -73q-41 -23 -92 -23h-8h-17q-46 0 -78.5 32.5t-31.5 78.5q5 92 5 164q0 54 -3 96l-25 393q-12 182 -22 232z" />
<glyph unicode="x" horiz-adv-x="1067" d="M-22 30q14 -22 40 -22h21h7q100 0 169 84q31 40 78 92l207 242l108 -250q23 -53 25 -59q21 -49 65 -79q40 -28 86 -28h9h20h18q31 -1 47.5 24.5t2.5 51.5q-4 9 -23.5 47t-32.5 66l-190 381l231 256q162 174 164 176l39 39q14 14 14 31q1 6 -1 12q-6 24 -33 24h-19h-20h-6 q-98 0 -173 -100q-26 -38 -98 -125l-166 -188l-71 167q-44 96 -60 142q-13 45 -52 73.5t-87 28.5h-25h-22q-37 0 -56.5 -30t-0.5 -60q26 -41 57 -102l184 -371l-348 -379l-104 -104q-10 -11 -10 -23q0 -8 6 -17z" />
<glyph unicode="y" horiz-adv-x="980" d="M-74 -420q-4 -12 -4 -24q0 -26 18 -48q24 -28 59 -28h9q48 6 91.5 19.5t78.5 29t70 43t60 49.5t54 60.5t46.5 63.5t44 72t40 72t39.5 76l334 733q82 193 140 297q13 26 16 31q9 15 9 30q0 14 -8 28q-16 30 -50 30h-19h-8q-44 0 -79 -29q-38 -32 -54 -84 q-57 -183 -252 -643l-100 -233l-92 676q-18 137 -21 198q-5 47 -38 81q-32 32 -76 32h-3h-20h-23h-5q-33 0 -55 -28q-15 -20 -15 -42q0 -12 4 -24q32 -113 65 -305q37 -211 53.5 -326.5t30.5 -286.5q4 -43 40.5 -71.5t86.5 -36.5l-53 -98q-17 -31 -30.5 -52.5t-41 -56.5 t-55.5 -57.5t-69.5 -41t-86.5 -20.5q-46 -3 -83 -25t-48 -61z" />
<glyph unicode="z" horiz-adv-x="894" d="M-23 27q16 -29 48 -29h4q153 8 342 8q146 0 278 -8h3q50 0 92 30q44 30 63 81q4 8 4 14q10 26 -13 41t-50 4q-48 -20 -107 -25q-88 -10 -225 -10q-28 0 -160 4l313 445q215 287 305 415q12 14 37 47q11 14 11 28q0 13 -9 26q-17 26 -47 26h-4q-100 -10 -305 -10 q-193 0 -311 8h-8q-40 0 -74 -26q-36 -30 -45 -76q-4 -31 20 -50.5t56 -13.5q50 12 137 15q93 5 176 5q62 0 119 -3q-119 -184 -219 -318l-295 -401q-5 -7 -53.5 -69t-57.5 -74q-1 -1 -8 -11t-12 -16q-12 -15 -12 -31q0 -12 7 -26z" />
<glyph unicode="{" horiz-adv-x="763" d="M203 578q3 15 14.5 28t26.5 17q32 6 65 32q8 7 15 15t12.5 15t11 18t9 18.5t8 23.5t7.5 25.5t8 32t8 35.5t9.5 44t10.5 50l47 266q9 53 22 95t40.5 90.5t66.5 81t103 56.5t147 27q13 0 19 -11.5t3 -25.5q-2 -14 -13 -25.5t-26 -12.5q-32 -3 -57.5 -15.5t-44.5 -28.5 t-35 -48t-26.5 -59t-22.5 -79t-19.5 -90t-19.5 -109l-19.5 -109.5t-17.5 -87.5t-19.5 -74.5t-23.5 -56t-30 -48t-37.5 -35t-49.5 -31.5t-63 -24q36 -14 60 -30.5t41.5 -32.5t23.5 -49t9 -56t-4 -79.5t-13 -94.5t-21 -123q-8 -43 -12 -68.5t-9.5 -63t-7.5 -60.5t-4 -53.5 t0.5 -49t6.5 -41t13 -36t20.5 -26.5t28.5 -20t38 -10q13 -3 20.5 -14t5.5 -25q-3 -15 -13 -26.5t-21 -10.5q-82 3 -138.5 26.5t-84 56t-38 81t-8.5 90t11 94.5l47 268q24 168 23 198q0 46 -25 77q-19 24 -52 35q-32 11 -26 43z" />
<glyph unicode="|" horiz-adv-x="468" d="M76 -426l332 1886q6 34 33.5 57t62.5 23q32 0 52.5 -24.5t14.5 -55.5l-331 -1886q-6 -35 -33.5 -57.5t-63.5 -22.5q-32 0 -52.5 24t-14.5 56z" />
<glyph unicode="}" horiz-adv-x="784" d="M-94 -354q3 13 14.5 24.5t24.5 14.5q32 4 58.5 18.5t45.5 33t36 52.5t28 63t23 79t18.5 85t17.5 97q38 220 62 286q33 92 102 136q37 23 96 43q-32 12 -54.5 24.5t-38.5 30t-25.5 35t-13 46.5t-3 55.5t6 71.5t12.5 86t18 106q1 7 2 11q44 202 34 310t-110 119 q-13 1 -20 12.5t-4 25.5q3 15 12 26t22 11q82 -3 137.5 -27t83 -56.5t38 -81t8.5 -90.5t-11 -95l-47 -266q-3 -20 -6.5 -49.5t-5.5 -44t-4.5 -36t-3.5 -32t-1.5 -26t0.5 -23t2 -18.5t4 -18t7 -15t10 -15q22 -25 54 -32q14 -5 21.5 -17.5t4.5 -27.5t-15 -26.5t-28 -16.5 q-35 -10 -63 -35q-9 -8 -16.5 -16t-14 -18.5t-11 -18.5t-10 -24t-8.5 -25.5t-9 -33.5t-9 -37.5t-10.5 -47t-12.5 -54.5l-47 -268q-9 -53 -22 -94.5t-40.5 -90t-66.5 -81t-103 -56t-147 -26.5q-13 -1 -18.5 10.5t-3.5 26.5z" />
<glyph unicode="~" horiz-adv-x="1165" d="M127.5 588.5q-0.5 -37.5 19.5 -68.5q13 -27 46 -27.5t53 23.5q34 39 61 51q39 17 74 17q64 0 164 -49l61 -31q51 -24 76.5 -35t60 -20t66.5 -9q114 0 225 103q26 25 31 62t-14 71q-13 26 -42 30t-51 -16q-71 -67 -143 -67q-52 0 -143 43l-68 30q-54 24 -79.5 34.5 t-68.5 22t-79 11.5q-127 0 -225 -111q-24 -27 -24.5 -64.5z" />
<glyph unicode="&#xa1;" horiz-adv-x="555" d="M31 90q-10 -36 16.5 -64.5t65.5 -23.5h10q54 6 92.5 39t44.5 84q13 122 80 500q44 249 70 370q7 35 -17.5 60.5t-60.5 23.5q-39 -2 -69.5 -26t-37.5 -60q-23 -141 -66 -345t-74 -338t-38 -160q-12 -48 -16 -60zM254 1298q0 -47 28 -76.5t72 -29.5q55 0 104.5 45.5 t49.5 112.5q0 54 -33 80t-74 26q-59 0 -103 -49t-44 -109z" />
<glyph unicode="&#xa2;" horiz-adv-x="980" d="M68 424q0 171 74.5 328t211 264t303.5 125q8 65 11 96q3 26 22.5 43t46.5 20q25 1 40 -17.5t9 -41.5q-15 -56 -20 -94q77 0 182 -27q34 -9 45.5 -44.5t-6.5 -69.5q-14 -32 -52 -39t-69 10q-59 28 -131 31q-23 -52 -53 -136q-8 -22 -31.5 -22.5t-23.5 22.5q0 76 -2 115 q-102 -26 -179.5 -111.5t-116 -198.5t-38.5 -233q0 -49 7.5 -90.5t16.5 -69.5t27 -54t29.5 -39t34 -28t30 -18.5t27.5 -13.5q33 78 51 125q8 22 30 19.5t21 -25.5q0 -92 2 -139q115 -8 242 49q24 10 41 -10.5t6 -45.5q-20 -47 -56.5 -78.5t-84.5 -37.5q-114 -15 -172 -15 q-3 -19 -9 -48.5t-8 -39.5q-3 -25 -24 -41t-49 -18q-23 0 -36 17.5t-7 39.5q3 8 26 103q-176 29 -272 144.5t-96 293.5z" />
<glyph unicode="&#xa3;" horiz-adv-x="1024" d="M-23 102q-6 -40 15.5 -70.5t58.5 -29.5q276 8 408 8q91 0 282 -6q51 -3 92.5 31t55.5 86q9 30 -16 52.5t-58 19.5q-18 -1 -127 -5h-434q37 8 58 15.5t54.5 28.5t61.5 61.5t51 101.5q20 51 31.5 113t14.5 100t7 121h166h33q32 -2 58 17.5t32 50.5q6 27 -13.5 46.5 t-47.5 16.5q-25 -2 -72 -2h-153q5 161 33.5 255t107.5 151q79 59 194 59q78 0 138 -29q31 -19 70 -15t55 34q22 36 11.5 77.5t-48.5 53.5q-83 26 -195 26q-125 0 -242.5 -45.5t-199.5 -124.5q-35 -35 -60.5 -75.5t-38.5 -73.5t-21 -77t-9.5 -70t-3.5 -70v-74q-21 0 -48.5 1 t-35.5 1q-33 2 -58.5 -16.5t-29.5 -50.5q-4 -26 13.5 -46t45.5 -20h14h101q0 -66 -2 -109.5t-12.5 -109.5t-30.5 -125q-55 -165 -189 -184q-45 -8 -78 -34t-39 -65z" />
<glyph unicode="&#xa4;" horiz-adv-x="1366" d="M130 222.5q6 35.5 36 60.5l113 94q-12 22 -19 36t-18.5 47t-16.5 63.5t-5 76.5t9 94q14 79 47 149.5t56 101.5t57 69l-76 92q-20 26 -14 61.5t37 61.5q29 26 65 26t58 -26l76 -92q160 104 337 104q59 0 109 -10t87 -28.5t57 -32t44 -33.5l109 92q31 26 67 26t58 -26 q20 -26 13 -61.5t-36 -61.5l-108 -92q12 -23 18.5 -37.5t17.5 -47.5t15 -63.5t4 -76t-8 -93.5q-11 -61 -30.5 -113.5t-46 -94.5t-43 -63t-42.5 -50l78 -92q20 -26 14 -62.5t-37 -62.5t-67 -26t-58 26l-73 94q-44 -27 -76.5 -44t-106.5 -37.5t-151 -20.5q-61 0 -112 10 t-89 29t-56.5 32t-43.5 33l-111 -94q-31 -25 -67 -25t-56 25q-21 27 -15 62.5zM393 694q-29 -165 64.5 -275t253.5 -110q158 0 286.5 111.5t157.5 277.5q15 84 -3.5 156.5t-62 121.5t-108 77t-139.5 28q-156 0 -287.5 -107.5t-161.5 -279.5z" />
<glyph unicode="&#xa5;" d="M201 1354q-14 31 2 60t49 28h47h39q46 1 80.5 -31.5t42.5 -79.5q12 -55 41 -157l123 -406l16 -53l35 55l278 436q54 90 74 135q22 45 63 73t87 28h28h41q30 0 43.5 -25.5t-4.5 -48.5q-42 -50 -115 -158l-290 -430q37 0 55 2q28 3 46.5 -16t14.5 -47q-6 -32 -31.5 -52 t-58.5 -18q-10 2 -35 2h-84l-83 -123l-5 -24h121q22 0 72 4q28 2 46.5 -18t14.5 -48q-6 -31 -32 -50t-58 -17h-35l-153 2q-38 -207 -45 -266q-5 -45 -37.5 -75.5t-77.5 -29.5h-22q-25 0 -37 -2q-35 0 -55 30t-11 66q26 87 47 224l8 51h-86h-16q-27 0 -45 19.5t-14 45.5 q6 32 31.5 52t58.5 18q4 0 71 -4h25l6 33l-37 112h-137h-14q-27 -2 -45.5 18.5t-14.5 47.5q6 30 31.5 49.5t56.5 17.5q8 0 35 -1t45 -1l-102 314q-54 169 -94 258z" />
<glyph unicode="&#xa7;" horiz-adv-x="894" d="M-5 -192.5q-12 37.5 3 73.5q10 26 37 33t49 -10q85 -72 197 -72q103 0 172 60.5t69 154.5q0 52 -24 89.5t-74 78.5q-26 23 -57 45.5t-68.5 48.5t-58.5 41q-34 24 -58.5 45.5t-52 53.5t-42.5 71t-15 82q0 108 87.5 186.5t229.5 85.5q-76 51 -116 119.5t-40 139.5 q0 61 28.5 120.5t82 109.5t139.5 81t191 31q92 0 162 -17q42 -9 53 -54.5t-10 -86.5q-9 -21 -32 -23t-40 13q-64 53 -158 53q-98 0 -163.5 -60t-65.5 -141q0 -53 23 -89t63 -71q30 -26 62.5 -49.5t78 -54t64.5 -43.5q29 -21 49 -39.5t44 -46t37 -61.5t13 -72q0 -87 -53 -162 q-25 -36 -58 -62.5t-71 -42.5t-61 -23t-56 -15q70 -52 105.5 -118t35.5 -132q0 -70 -28 -134.5t-80 -114.5t-133.5 -80t-180.5 -30q-123 0 -233 39q-34 12 -46 49.5zM252 635q0 -28 13.5 -55.5t30.5 -48.5t53 -49.5t60.5 -45.5t73.5 -49q88 4 145.5 55.5t57.5 122.5 q0 67 -49.5 119.5t-173.5 136.5q-60 -7 -104 -29t-66 -51.5t-31.5 -55.5t-9.5 -50z" />
<glyph unicode="&#xa8;" horiz-adv-x="468" d="M-86 1337q0 65 45.5 111.5t103.5 46.5q53 0 80 -31.5t27 -74.5q0 -59 -44.5 -107.5t-107.5 -48.5q-43 0 -73.5 26t-30.5 78zM301 1337q0 65 46 111.5t104 46.5q53 0 79.5 -31.5t26.5 -74.5q0 -59 -44.5 -107.5t-106.5 -48.5q-43 0 -74 26t-31 78z" />
<glyph unicode="&#xa9;" horiz-adv-x="1705" d="M158 719q0 154 58.5 290.5t157.5 232t232 151t279 55.5q155 0 291.5 -58t232.5 -156.5t151.5 -232t55.5 -280.5q0 -149 -56.5 -283.5t-153.5 -232.5t-233 -155.5t-288 -57.5q-142 0 -274 54t-232.5 147.5t-160.5 231t-60 294.5zM223 719q0 -182 89 -334.5t241 -240 t332 -87.5q186 0 339 89t239.5 241.5t86.5 333.5q0 179 -85.5 330.5t-237.5 241t-338 89.5q-138 0 -262 -52.5t-212 -141t-140 -211t-52 -258.5zM494 592q0 78 15.5 154.5t56.5 158.5t103.5 143t165.5 100.5t234 39.5q59 0 123 -14q26 -4 37 -28.5t2 -49.5q-9 -22 -33 -30 t-47 3q-45 25 -121 25q-81 0 -148 -30.5t-110.5 -80.5t-74 -115.5t-43.5 -132.5t-13 -135q0 -132 66.5 -208.5t205.5 -76.5q71 0 131 23q3 2 11.5 5t11.5 5q14 6 27.5 -4t7.5 -25q-14 -35 -42 -59.5t-63 -28.5q-66 -8 -123 -8q-233 0 -325 144q-55 83 -55 225z" />
<glyph unicode="&#xaa;" horiz-adv-x="681" d="M121 946q0 -57 17.5 -100t46 -67t60.5 -36t66 -12q48 0 102.5 49t137.5 152q-7 -42 -14 -119q-1 -29 19 -48.5t50 -19.5q24 0 42 16.5t18 39.5q0 65 18 176l31 180q25 142 41 199q8 35 -18 60.5t-60 15.5q-82 28 -135 28q-158 0 -277 -133q-59 -64 -94 -150.5t-43 -138.5 t-8 -92zM266 997q0 35 7 78t25 95t45.5 94.5t73.5 71t103 28.5q59 0 101 -18l-33 -168q-28 -169 -80 -244q-59 -80 -137 -80q-105 0 -105 143z" />
<glyph unicode="&#xab;" horiz-adv-x="681" d="M74 713q-6 -39 10 -75t49 -60q60 -44 103 -111q14 -18 36 -11t27 31q17 99 -43 162q-28 33 -82 70q48 20 119 63q70 42 86 125q4 22 -14 33.5t-37 -0.5q-66 -48 -162 -100q-37 -19 -61.5 -53t-30.5 -74zM385 692q-13 -88 57 -143q53 -41 109 -115q15 -18 36.5 -10.5 t26.5 29.5q17 88 -30 149q-26 36 -99 98q83 42 129 70q68 38 82 121q4 22 -13 34t-36 1q-84 -58 -155 -97q-89 -49 -107 -137z" />
<glyph unicode="&#xac;" horiz-adv-x="1366" d="M39 598q-6 -34 13.5 -58t53.5 -24h1121l-76 -434q-6 -34 13 -58t53 -24q35 0 63.5 24t34.5 58l84 475q7 51 -22 86t-79 35h-1163q-34 0 -62 -24t-34 -56z" />
<glyph unicode="&#xad;" horiz-adv-x="641" d="M129 602q-6 -37 18.5 -65t61.5 -27q7 0 23 1t24 1q49 0 201 -8q43 -1 76.5 25t44.5 67q8 36 -15 64.5t-59 25.5q-57 -4 -150 -4q-79 0 -112 2q-40 3 -73 -20.5t-40 -61.5z" />
<glyph unicode="&#xae;" horiz-adv-x="1705" d="M158 719q0 154 58.5 290.5t157.5 232t232 151t279 55.5q155 0 292 -58.5t232.5 -157t151 -232t55.5 -279.5q0 -149 -56.5 -283.5t-153.5 -232.5t-233 -155.5t-288 -57.5q-141 0 -273 54t-232.5 147.5t-161 231t-60.5 294.5zM223 719q0 -182 89.5 -334.5t242 -240 t332.5 -87.5q184 0 336.5 89t239.5 241.5t87 333.5q0 178 -85.5 329.5t-238 241.5t-337.5 90q-138 0 -262 -52.5t-212 -141.5t-140 -211.5t-52 -257.5zM539 342q22 78 49 209l86 459q14 96 16 118q3 29 21 49.5t45 20.5h82q46 1 88.5 2.5t56.5 1.5q124 0 188 -37 q47 -29 68 -78t21 -98q0 -23 -5 -51t-27.5 -76t-60.5 -86q-69 -69 -178 -96q14 -175 176 -350q14 -14 9 -33t-23 -18h-35q-83 0 -121 55q-35 59 -71 127q-46 92 -62 198h-127l-47 -286q-1 -4 -2 -12t-2 -11q-3 -30 -24 -50.5t-50 -20.5h-16h-6q-26 0 -41.5 20t-7.5 43z M756 756q3 0 26.5 -1t40.5 -1q103 0 156 26q68 29 99.5 88t31.5 109q0 141 -174 141q-16 0 -111 -10q-22 -88 -39 -182z" />
<glyph unicode="&#xaf;" horiz-adv-x="468" d="M-66 1362q6 31 30 50t56 18q195 -5 232 -5q29 0 219 5q28 2 46.5 -18t14.5 -48q-6 -31 -29 -50.5t-54 -19.5q-152 4 -228 4q-73 0 -225 -4q-28 0 -47 20.5t-15 47.5z" />
<glyph unicode="&#xb0;" horiz-adv-x="724" d="M190 1217q-22 -125 51 -213.5t197 -88.5q126 0 229.5 88.5t125.5 213.5q23 125 -49.5 213t-198.5 88q-124 0 -228 -88t-127 -213zM313 1217q14 73 75.5 125.5t135.5 52.5q73 0 116.5 -53t29.5 -125q-12 -73 -73.5 -126t-135.5 -53t-117 52.5t-31 126.5z" />
<glyph unicode="&#xb1;" horiz-adv-x="1335" d="M223 82q-6 -34 14 -58t54 -24h674q34 0 61 24t33 58t-13 57t-53 23h-674q-34 0 -62 -23t-34 -57zM252 854q-6 -34 12.5 -58t52.5 -24h367l-59 -342q-6 -34 13 -58t54 -24q34 0 62 24t34 58l60 342h360q34 0 62.5 24t34.5 58t-14 57t-54 23h-360l61 342q5 34 -15 58 t-55 24q-34 0 -62 -24t-32 -58l-61 -342h-367q-34 0 -61 -23t-33 -57z" />
<glyph unicode="&#xb4;" horiz-adv-x="468" d="M100 1254q8 18 29 32q96 66 111 125q12 49 33.5 73.5t68.5 24.5q34 0 52.5 -26t8.5 -64q-12 -37 -33.5 -60t-93.5 -77q-82 -49 -161 -49q-23 0 -15 21z" />
<glyph unicode="&#xb5;" horiz-adv-x="1110" d="M-76 -422q-9 -37 13.5 -67.5t60.5 -30.5q46 2 81.5 28.5t41.5 69.5q4 25 15.5 82.5t17.5 91.5l55 311q1 -1 7 -11t15 -20.5t24 -22t40 -18.5t57 -7q140 0 273 133q51 49 92 116q-13 -73 -15 -122q-3 -42 28.5 -73.5t74.5 -31.5q40 0 68.5 28.5t27.5 67.5v17q0 112 70 499 q44 254 90 412q11 38 -15.5 67.5t-64.5 22.5q-7 -2 -21.5 -5t-21.5 -5q-42 -6 -67.5 -42t-28.5 -83q-1 -19 -13 -102q-34 -257 -74 -391.5t-91 -210.5q-46 -67 -113 -100.5t-129 -33.5q-26 0 -47 4t-41.5 13.5t-33.5 28t-21 45t-7 66.5t11 91l77 398q36 161 56 235 q10 38 -19 66t-69 20q-13 -4 -35 -8q-40 -6 -65 -41t-27 -78q0 -40 -19 -137l-51 -258l-154 -778q-34 -168 -53 -236z" />
<glyph unicode="&#xb6;" horiz-adv-x="1366" d="M287 1036q-18 -93 4 -174.5t82 -134.5q27 -25 61 -41.5t55 -22t54 -10.5l-166 -934q-3 -25 11 -42t38 -17q25 0 44 17t24 42l284 1616h295l-285 -1616q-3 -25 11 -42t39 -17t44.5 17t24.5 42l285 1616h14q23 0 42 16.5t24 39.5q4 23 -9 39t-36 16h-414q-61 -1 -101 -5 t-112 -29t-131 -71q-72 -56 -119.5 -136.5t-62.5 -168.5z" />
<glyph unicode="&#xb7;" horiz-adv-x="468" d="M127 565q0 67 49.5 112.5t104.5 45.5q44 0 72 -30t28 -77q0 -60 -44.5 -108.5t-103.5 -48.5q-41 0 -73.5 26t-32.5 80z" />
<glyph unicode="&#xb8;" horiz-adv-x="468" d="M76 -385q11 37 69 25q20 -5 31 -5q55 0 89 35t34 74q0 32 -18 47q-2 2 -11.5 12t-12.5 13t-11.5 12.5t-11.5 14t-9 13t-8 14t-5 14t-3.5 15t0.5 14.5t4 15q24 59 43 140h96l-69 -205q13 0 26 -1t33.5 -7.5t35 -17t25.5 -32.5t11 -51q0 -32 -16.5 -66t-47.5 -66 t-84.5 -52.5t-118.5 -20.5q-7 0 -19.5 1t-18.5 1q-21 3 -31 22.5t-2 41.5z" />
<glyph unicode="&#xba;" horiz-adv-x="724" d="M133 993q0 -64 18 -113t45 -77t63 -46t67 -24t63 -6q79 0 147 31t114 81.5t79 115.5t48.5 131.5t15.5 130.5q0 114 -64 178q-62 65 -190 65q-78 0 -145.5 -28.5t-114.5 -75.5t-80.5 -108t-49.5 -126t-16 -129zM268 979q0 33 6 76.5t23 99.5t42.5 101t70 76.5t100.5 31.5 q65 0 97 -39t32 -106q0 -18 -3.5 -47.5t-11.5 -77t-26 -93t-43 -86.5t-67 -66.5t-93 -25.5q-36 0 -62 14.5t-38 33t-18.5 44.5t-7.5 38t-1 26z" />
<glyph unicode="&#xbb;" horiz-adv-x="681" d="M53 512q-5 -22 12.5 -34.5t36.5 -0.5q88 58 156 94q89 49 107 138q7 39 -8 77.5t-48 65.5q-56 45 -110 115q-15 18 -37 11.5t-27 -30.5q-17 -87 31 -147q28 -40 96 -101q-59 -30 -127 -67q-69 -41 -82 -121zM371 494q-4 -22 15 -33.5t36 2.5q84 58 162 98q80 44 92 129 q6 38 -10.5 73.5t-49.5 59.5q-58 42 -102 111q-14 20 -36 12.5t-27 -31.5q-17 -100 43 -163q40 -43 79 -70q-39 -17 -116 -64q-70 -42 -86 -124z" />
<glyph unicode="&#xbf;" horiz-adv-x="894" d="M27 324q0 -57 12.5 -106.5t43 -94.5t76.5 -77t117 -50.5t162 -18.5q81 0 154 13q39 6 62.5 38.5t23.5 75.5q0 30 -26 46.5t-56 7.5q-67 -23 -135 -23q-113 0 -168 49t-55 152q0 68 16.5 136.5t48.5 115.5q21 32 43.5 54.5t55.5 39t53 23.5t67 22q98 29 137 50.5t70 66.5 q33 50 45 129q7 37 -19.5 63.5t-64.5 28.5q-40 1 -70.5 -26t-39.5 -68q-14 -55 -43.5 -76.5t-110.5 -48.5l-100 -35q-40 -16 -61 -26t-55 -32t-56 -47t-46 -66.5t-42 -94.5q-39 -119 -39 -221zM604 1300q0 -47 28.5 -76.5t72.5 -29.5q55 0 104 45.5t49 112.5q0 54 -32.5 80 t-73.5 26q-59 0 -103.5 -49t-44.5 -109z" />
<glyph unicode="&#xc0;" horiz-adv-x="1236" d="M-43 96q35 59 72.5 127t97 180t72.5 136q224 418 411 804q23 46 69.5 71.5t100.5 23.5q14 -2 47 -2q49 0 87 -28.5t42 -74.5q3 -38 6.5 -81.5t8.5 -97.5t8 -85l82 -723q25 -198 31 -231q6 -42 -19.5 -75t-66.5 -32q-6 2 -19 2h-22q-42 -2 -73 24.5t-32 67.5 q-1 17 -4.5 65.5t-5.5 80.5l-12 186h-510l-95 -194q-39 -79 -57 -129q-20 -45 -56.5 -74.5t-80.5 -28.5q-8 2 -27 2q-35 0 -54 28t-1 58zM399 586q152 -4 254 -4q96 0 170 4l-39 413q-18 180 -32 265q-10 -20 -45.5 -86t-74.5 -139.5t-48 -90.5zM631 1737q-9 38 10 64t53 26 q47 0 68 -24t35 -74q15 -59 108 -125q31 -19 33 -40q1 -14 -16 -14q-79 0 -164 49q-70 53 -92 76.5t-35 61.5z" />
<glyph unicode="&#xc1;" horiz-adv-x="1236" d="M-43 96q35 59 72.5 127t97 180t72.5 136q224 418 411 804q23 46 69.5 71.5t100.5 23.5q14 -2 47 -2q49 0 87 -28.5t42 -74.5q3 -38 6.5 -81.5t8.5 -97.5t8 -85l82 -723q25 -198 31 -231q6 -42 -19.5 -75t-66.5 -32q-6 2 -19 2h-22q-42 -2 -73 24.5t-32 67.5 q-1 17 -4.5 65.5t-5.5 80.5l-12 186h-510l-95 -194q-39 -79 -57 -129q-20 -45 -56.5 -74.5t-80.5 -28.5q-8 2 -27 2q-35 0 -54 28t-1 58zM399 586q152 -4 254 -4q96 0 170 4l-39 413q-18 180 -32 265q-10 -20 -45.5 -86t-74.5 -139.5t-48 -90.5zM688 1574q7 18 29 32 q95 65 110 125q12 49 34 73.5t69 24.5q34 0 52.5 -26t8.5 -64q-12 -37 -33.5 -60t-93.5 -77q-83 -50 -162 -50q-23 0 -14 22z" />
<glyph unicode="&#xc2;" horiz-adv-x="1236" d="M-43 96q35 59 72.5 127t97 180t72.5 136q224 418 411 804q23 46 69.5 71.5t100.5 23.5q14 -2 47 -2q49 0 87 -28.5t42 -74.5q3 -38 6.5 -81.5t8.5 -97.5t8 -85l82 -723q25 -198 31 -231q6 -42 -19.5 -75t-66.5 -32q-6 2 -19 2h-22q-42 -2 -73 24.5t-32 67.5 q-1 17 -4.5 65.5t-5.5 80.5l-12 186h-510l-95 -194q-39 -79 -57 -129q-20 -45 -56.5 -74.5t-80.5 -28.5q-8 2 -27 2q-35 0 -54 28t-1 58zM399 586q152 -4 254 -4q96 0 170 4l-39 413q-18 180 -32 265q-10 -20 -45.5 -86t-74.5 -139.5t-48 -90.5zM541.5 1572q-4.5 20 11.5 34 q29 25 58 52.5t46 44t19 19.5q25 22 37 37q63 70 141 70q42 0 78 -24.5t57 -63.5q20 -47 78 -117q18 -20 8 -44t-37 -24q-93 0 -143 62q-25 29 -70 102q-12 -13 -35.5 -37.5t-32 -33t-24.5 -23.5t-33 -29q-54 -45 -133 -45q-21 0 -25.5 20z" />
<glyph unicode="&#xc3;" horiz-adv-x="1236" d="M-43 96q35 59 72.5 127t97 180t72.5 136q224 418 411 804q23 46 69.5 71.5t100.5 23.5q14 -2 47 -2q49 0 87 -28.5t42 -74.5q3 -38 6.5 -81.5t8.5 -97.5t8 -85l82 -723q25 -198 31 -231q6 -42 -19.5 -75t-66.5 -32q-6 2 -19 2h-22q-42 -2 -73 24.5t-32 67.5 q-1 17 -4.5 65.5t-5.5 80.5l-12 186h-510l-95 -194q-39 -79 -57 -129q-20 -45 -56.5 -74.5t-80.5 -28.5q-8 2 -27 2q-35 0 -54 28t-1 58zM399 586q152 -4 254 -4q96 0 170 4l-39 413q-18 180 -32 265q-10 -20 -45.5 -86t-74.5 -139.5t-48 -90.5zM553 1630l16 66 q17 58 40.5 81t60.5 23q22 0 86 -22l110 -39q1 0 27.5 -10t45.5 -14.5t36 -4.5q47 0 84 72q8 15 22 8q15 -4 11 -18l-17 -93q-9 -43 -28 -59t-68 -16q-36 0 -123 30l-111 33q-51 14 -69 14q-31 0 -51 -16t-37 -47q-7 -17 -25 -10q-6 3 -9.5 9.5t-0.5 12.5z" />
<glyph unicode="&#xc4;" horiz-adv-x="1236" d="M-43 96q-18 -30 1 -58t54 -28q19 0 27 -2q44 -1 80.5 28.5t56.5 74.5q18 50 57 129l95 194h510l12 -186q2 -32 5.5 -80.5t4.5 -65.5q1 -41 32 -67.5t73 -24.5h22q13 0 19 -2q41 -1 66.5 32t19.5 75q-6 33 -31 231l-82 723q-3 31 -8 85t-8.5 97.5t-6.5 81.5 q-4 46 -42 74.5t-87 28.5q-33 0 -47 2q-54 2 -100.5 -23.5t-69.5 -71.5q-187 -386 -411 -804q-19 -36 -58 -109.5t-64 -120t-59 -107t-61 -106.5zM399 586l185 362q9 17 48 90.5t74.5 139.5t45.5 86q14 -85 32 -265l39 -413q-74 -4 -170 -4q-102 0 -254 4zM518 1659 q0 -52 31 -78.5t74 -26.5q62 0 106.5 48.5t44.5 107.5q0 43 -26.5 75t-79.5 32q-58 0 -104 -46.5t-46 -111.5zM905 1659q0 -52 31 -78.5t74 -26.5q62 0 106.5 48.5t44.5 107.5q0 43 -26.5 75t-79.5 32q-58 0 -104 -46.5t-46 -111.5z" />
<glyph unicode="&#xc5;" horiz-adv-x="1236" d="M-43 96q-18 -30 1 -58t54 -28q5 0 14 -1t13 -1q44 -1 80.5 28.5t56.5 74.5q19 53 57 127l95 194h510l12 -186q2 -29 5.5 -77.5t4.5 -66.5q1 -41 32 -67.5t73 -26.5q3 0 10.5 1t11.5 1q3 0 9.5 -1t9.5 -1q41 -1 66.5 32t19.5 75q-6 31 -31 229l-82 725q-3 31 -8 85 t-8.5 97.5t-6.5 81.5q-4 46 -42 74.5t-87 28.5q-33 0 -47 2q-54 2 -100.5 -23.5t-69.5 -71.5q-187 -386 -411 -804q-178 -336 -242 -443zM399 584l185 364q14 28 85.5 161.5t82.5 154.5q16 -107 32 -263l39 -417q-74 -2 -170 -2q-102 0 -254 2zM684 1649q0 -33 11.5 -63.5 t42.5 -54.5t77 -24q84 0 143.5 67.5t59.5 143.5q0 58 -39.5 96.5t-97.5 38.5q-83 0 -140 -63.5t-57 -140.5zM758 1653q0 52 34 92.5t82 40.5q27 0 48.5 -18t21.5 -54q0 -58 -39 -96.5t-82 -38.5q-28 0 -46.5 19.5t-18.5 54.5z" />
<glyph unicode="&#xc6;" horiz-adv-x="1748" d="M-56 32.5q-8 29.5 13 51.5q12 14 223 297l395 541q239 328 310 450q28 43 74.5 65t99.5 17q58 -6 162 -6q362 0 512 6q35 1 56 -26.5t13 -61.5q-7 -33 -37.5 -51t-64.5 -12q-68 10 -197 10q-75 0 -243 -6l-89 -465h78q99 3 152 12q34 6 58.5 -19t17.5 -59 q-9 -42 -50 -63.5t-88 -16.5q-25 2 -88 2q-14 0 -56 -1t-54 -1l-78 -420q-6 -31 -7 -51.5t5.5 -36t16.5 -23.5t33 -13t48.5 -6t69.5 -1q242 0 338 29q28 7 45.5 -17.5t9.5 -54.5q-15 -45 -54 -72.5t-87 -25.5q-144 4 -189 4h-192q-176 -4 -213 -4q-39 -1 -58.5 31.5 t-7.5 70.5q20 60 49 203l48 250h-416l-99 -139q-140 -214 -184 -303q-3 -9 -6 -15q-23 -45 -69 -71.5t-101 -26.5q-3 0 -9.5 1t-10.5 1q-6 0 -20 -1t-21 -1q-30 -1 -38 28.5zM608 711q55 -2 166 -2q115 0 172 2l107 626q-35 -49 -109 -151q-45 -65 -231 -318z" />
<glyph unicode="&#xc7;" d="M113 545q0 -87 14 -160.5t35 -122.5t52 -90t57.5 -64.5t58.5 -44.5q114 -73 274 -86q-3 -7 -10 -27t-12 -30q-3 -8 -4.5 -16.5t1 -17t4 -15t7.5 -15.5t9 -14t12.5 -15t12.5 -13l14 -14l13 -13q17 -20 17 -49q0 -39 -33 -74t-88 -35q-13 0 -33 4q-56 13 -70 -24 q-6 -21 4 -41t31 -21q20 -4 39 -4q65 0 118.5 20.5t84 52.5t47 66t16.5 66q0 36 -15.5 60.5t-40.5 33.5t-41.5 12t-33.5 3l37 114q106 0 217 15q53 7 94 44t60 91q9 24 -11 39t-44 4q-3 -1 -10 -3.5t-13.5 -5t-11.5 -5.5q-94 -37 -205 -37q-204 0 -313 116 q-109 118 -109 330q0 106 21 211.5t68 207t116 179t173 125t230 47.5q117 0 189 -35q34 -18 70 -6t51 47q16 35 1.5 72.5t-51.5 46.5q-104 25 -215 25q-103 0 -216.5 -22.5t-205.5 -67.5q-120 -58 -212 -154.5t-145 -212t-79 -235.5t-26 -242z" />
<glyph unicode="&#xc8;" horiz-adv-x="1024" d="M63 106q35 118 74 343l58 315q75 414 81 561q3 50 36.5 84t80.5 33q94 -2 283 -2q139 0 319 4q33 2 54 -23t14 -57q-8 -35 -37.5 -55.5t-64.5 -14.5q-74 11 -189 11q-70 0 -170.5 -3.5t-101.5 -3.5l-88 -458h96q124 4 141 6q38 5 66.5 -17.5t21.5 -56.5 q-9 -42 -48.5 -64.5t-86.5 -17.5q-41 4 -95.5 4t-88.5 -2l-35 -2l-74 -381q-7 -35 -10.5 -56.5t-1.5 -41.5t3.5 -30.5t16 -20t24.5 -13t40.5 -6t52 -2.5h70.5q169 0 278 19q7 2 24 5t25 5q28 7 47 -13.5t11 -48.5q-15 -48 -54 -78.5t-87 -29.5q-42 0 -145 1t-165 1 q-102 -2 -309 -2q-40 -1 -59.5 33.5t-6.5 74.5zM539 1737q-9 38 10 64t53 26q47 0 68 -24t35 -74q15 -59 108 -125q31 -19 32 -40q1 -14 -16 -14q-78 0 -163 49q-70 53 -92 76.5t-35 61.5z" />
<glyph unicode="&#xc9;" horiz-adv-x="1024" d="M63 106q35 118 74 343l58 315q75 414 81 561q3 50 36.5 84t80.5 33q94 -2 283 -2q139 0 319 4q33 2 54 -23t14 -57q-8 -35 -37.5 -55.5t-64.5 -14.5q-74 11 -189 11q-70 0 -170.5 -3.5t-101.5 -3.5l-88 -458h96q124 4 141 6q38 5 66.5 -17.5t21.5 -56.5 q-9 -42 -48.5 -64.5t-86.5 -17.5q-41 4 -95.5 4t-88.5 -2l-35 -2l-74 -381q-7 -35 -10.5 -56.5t-1.5 -41.5t3.5 -30.5t16 -20t24.5 -13t40.5 -6t52 -2.5h70.5q169 0 278 19q7 2 24 5t25 5q28 7 47 -13.5t11 -48.5q-15 -48 -54 -78.5t-87 -29.5q-42 0 -145 1t-165 1 q-102 -2 -309 -2q-40 -1 -59.5 33.5t-6.5 74.5zM612 1574q7 18 29 32q96 66 111 125q12 49 33.5 73.5t68.5 24.5q34 0 52.5 -26t8.5 -64q-12 -37 -33.5 -60t-93.5 -77q-83 -50 -161 -50q-23 0 -15 22z" />
<glyph unicode="&#xca;" horiz-adv-x="1024" d="M63 106q35 118 74 343l58 315q75 414 81 561q3 50 36.5 84t80.5 33q94 -2 283 -2q139 0 319 4q33 2 54 -23t14 -57q-8 -35 -37.5 -55.5t-64.5 -14.5q-74 11 -189 11q-70 0 -170.5 -3.5t-101.5 -3.5l-88 -458h96q124 4 141 6q38 5 66.5 -17.5t21.5 -56.5 q-9 -42 -48.5 -64.5t-86.5 -17.5q-41 4 -95.5 4t-88.5 -2l-35 -2l-74 -381q-7 -35 -10.5 -56.5t-1.5 -41.5t3.5 -30.5t16 -20t24.5 -13t40.5 -6t52 -2.5h70.5q169 0 278 19q7 2 24 5t25 5q28 7 47 -13.5t11 -48.5q-15 -48 -54 -78.5t-87 -29.5q-42 0 -145 1t-165 1 q-102 -2 -309 -2q-40 -1 -59.5 33.5t-6.5 74.5zM435 1572q-5 20 11 34q29 25 58 52.5t46 44t19 19.5q25 22 37 37q63 70 142 70q42 0 78 -24.5t57 -63.5q20 -47 78 -117q18 -20 8 -44t-37 -24q-94 0 -144 62q-21 25 -69 102q-12 -13 -35.5 -37.5t-32 -33t-24.5 -23.5 t-33 -29q-54 -45 -133 -45q-21 0 -26 20z" />
<glyph unicode="&#xcb;" horiz-adv-x="1024" d="M63 106q35 118 74 343l58 315q75 414 81 561q3 50 36.5 84t80.5 33q94 -2 283 -2q139 0 319 4q33 2 54 -23t14 -57q-8 -35 -37.5 -55.5t-64.5 -14.5q-74 11 -189 11q-70 0 -170.5 -3.5t-101.5 -3.5l-88 -458h96q124 4 141 6q38 5 66.5 -17.5t21.5 -56.5 q-9 -42 -48.5 -64.5t-86.5 -17.5q-41 4 -95.5 4t-88.5 -2l-35 -2l-74 -381q-7 -35 -10.5 -56.5t-1.5 -41.5t3.5 -30.5t16 -20t24.5 -13t40.5 -6t52 -2.5h70.5q169 0 278 19q7 2 24 5t25 5q28 7 47 -13.5t11 -48.5q-15 -48 -54 -78.5t-87 -29.5q-42 0 -145 1t-165 1 q-102 -2 -309 -2q-40 -1 -59.5 33.5t-6.5 74.5zM393 1659q0 65 46 111.5t104 46.5q53 0 79.5 -32t26.5 -75q0 -59 -44.5 -107.5t-106.5 -48.5q-43 0 -74 26.5t-31 78.5zM780 1659q0 65 46 111.5t104 46.5q53 0 79.5 -32t26.5 -75q0 -59 -44.5 -107.5t-106.5 -48.5 q-43 0 -74 26.5t-31 78.5z" />
<glyph unicode="&#xcc;" horiz-adv-x="512" d="M59 106q14 47 58 240l141 744q25 124 39 241q5 47 33 80.5t69 32.5h23h22q39 1 62 -31.5t12 -71.5q-26 -90 -61 -278l-131 -717q-26 -138 -37 -231q-5 -46 -38.5 -77.5t-78.5 -31.5h-37q-39 -1 -63 30t-13 70zM272 1737q-9 38 10.5 64t53.5 26q47 0 67.5 -24t34.5 -74 q15 -58 109 -125q31 -19 32 -40q1 -14 -16 -14q-79 0 -164 49q-70 53 -92 76.5t-35 61.5z" />
<glyph unicode="&#xcd;" horiz-adv-x="512" d="M59 106q14 47 58 240l141 744q25 124 39 241q5 47 33 80.5t69 32.5h23h22q39 1 62 -31.5t12 -71.5q-26 -90 -61 -278l-131 -717q-26 -138 -37 -231q-5 -46 -38.5 -77.5t-78.5 -31.5h-37q-39 -1 -63 30t-13 70zM317 1574q8 18 29 32q96 66 111 125q12 49 33.5 73.5 t68.5 24.5q34 0 53 -26t9 -64q-12 -37 -33.5 -60t-93.5 -77q-83 -50 -162 -50q-23 0 -15 22z" />
<glyph unicode="&#xce;" horiz-adv-x="512" d="M59 106q14 47 58 240l141 744q25 124 39 241q5 47 33 80.5t69 32.5h23h22q39 1 62 -31.5t12 -71.5q-26 -90 -61 -278l-131 -717q-26 -138 -37 -231q-5 -46 -38.5 -77.5t-78.5 -31.5h-37q-39 -1 -63 30t-13 70zM177 1572q-5 20 11 34q29 25 58 52.5t46 44t19 19.5 q25 22 37 37q63 70 141 70q42 0 78.5 -24.5t57.5 -63.5q21 -50 77 -117q18 -20 8.5 -44t-36.5 -24q-94 0 -144 62q-21 25 -69 102q-12 -13 -35.5 -37.5t-32 -33t-24.5 -23.5t-33 -29q-54 -45 -133 -45q-21 0 -26 20z" />
<glyph unicode="&#xcf;" horiz-adv-x="512" d="M59 106q14 47 58 240l141 744q25 124 39 241q5 47 33 80.5t69 32.5h23h22q39 1 62 -31.5t12 -71.5q-26 -90 -61 -278l-131 -717q-26 -138 -37 -231q-5 -46 -38.5 -77.5t-78.5 -31.5h-37q-39 -1 -63 30t-13 70zM137 1659q0 65 46 111.5t104 46.5q53 0 79.5 -32t26.5 -75 q0 -59 -44.5 -107.5t-106.5 -48.5q-43 0 -74 26.5t-31 78.5zM524 1659q0 65 46 111.5t104 46.5q53 0 79.5 -32t26.5 -75q0 -59 -44.5 -107.5t-106.5 -48.5q-43 0 -74 26.5t-31 78.5z" />
<glyph unicode="&#xd1;" horiz-adv-x="1366" d="M35 106q62 187 182 834q47 253 47 389q0 45 27 79t69 34h25h64q51 1 90 -31.5t55 -83.5q17 -49 74 -176l235 -539q86 -197 131 -319q5 50 13 102q51 316 53 328l76 418q20 112 28 190q5 46 37.5 78.5t77.5 32.5h10q38 0 60.5 -32t9.5 -69q-45 -125 -105 -401l-92 -461 q-48 -268 -57 -350q-4 -24 -4 -31q-5 -41 -33.5 -68t-67.5 -26q-43 2 -78.5 23.5t-48.5 58.5q-23 68 -129 309l-198 449q-116 261 -166 413q-38 -243 -121 -761q-44 -265 -51 -383q-3 -45 -37.5 -75.5t-79.5 -27.5h-22q-38 0 -61.5 30.5t-12.5 65.5zM616 1630l17 66 q17 58 40 81t60 23q22 0 86 -22l111 -39q2 -1 27.5 -10t44.5 -14t36 -5q47 0 84 72q3 6 10 8.5t13 -0.5q14 -3 10 -18l-16 -93q-9 -43 -28.5 -59t-68.5 -16q-34 0 -122 30l-111 33q-51 14 -70 14q-31 0 -51 -16t-37 -47q-7 -17 -24 -10q-18 9 -11 22z" />
<glyph unicode="&#xd2;" horiz-adv-x="1492" d="M102 522q0 57 7.5 122t32.5 160t64.5 182.5t112 180.5t166.5 162q199 141 447 141q258 0 393 -132t135 -375q0 -77 -13.5 -163.5t-44 -183t-75 -187t-111.5 -173.5t-148 -145t-189.5 -99t-231.5 -37q-117 0 -229.5 39.5t-192.5 128.5q-123 136 -123 379zM328 518 q0 -61 12.5 -137.5t42.5 -128.5q42 -73 118.5 -108.5t157.5 -37.5q88 0 165.5 31t135 83.5t104.5 123t77.5 147.5t52 159.5t30.5 156.5t9 141q0 227 -105 318q-79 67 -219 67q-101 0 -188.5 -38t-149.5 -103t-110 -147t-76 -175t-42.5 -181.5t-14.5 -170.5zM772 1737 q-9 38 10.5 64t53.5 26q47 0 67.5 -24t34.5 -74q15 -58 109 -125q31 -19 32 -40q1 -14 -16 -14q-79 0 -164 49q-70 53 -92 76.5t-35 61.5z" />
<glyph unicode="&#xd3;" horiz-adv-x="1492" d="M102 522q0 57 7.5 122t32.5 160t64.5 182.5t112 180.5t166.5 162q199 141 447 141q258 0 393 -132t135 -375q0 -77 -13.5 -163.5t-44 -183t-75 -187t-111.5 -173.5t-148 -145t-189.5 -99t-231.5 -37q-117 0 -229.5 39.5t-192.5 128.5q-123 136 -123 379zM328 518 q0 -61 12.5 -137.5t42.5 -128.5q42 -73 118.5 -108.5t157.5 -37.5q88 0 165.5 31t135 83.5t104.5 123t77.5 147.5t52 159.5t30.5 156.5t9 141q0 227 -105 318q-79 67 -219 67q-101 0 -188.5 -38t-149.5 -103t-110 -147t-76 -175t-42.5 -181.5t-14.5 -170.5zM825 1574 q7 18 29 32q96 66 111 125q12 49 33.5 73.5t68.5 24.5q34 0 52.5 -26t8.5 -64q-12 -37 -33.5 -60t-93.5 -77q-83 -50 -161 -50q-23 0 -15 22z" />
<glyph unicode="&#xd4;" horiz-adv-x="1492" d="M102 522q0 57 7.5 122t32.5 160t64.5 182.5t112 180.5t166.5 162q199 141 447 141q258 0 393 -132t135 -375q0 -77 -13.5 -163.5t-44 -183t-75 -187t-111.5 -173.5t-148 -145t-189.5 -99t-231.5 -37q-117 0 -229.5 39.5t-192.5 128.5q-123 136 -123 379zM328 518 q0 -61 12.5 -137.5t42.5 -128.5q42 -73 118.5 -108.5t157.5 -37.5q88 0 165.5 31t135 83.5t104.5 123t77.5 147.5t52 159.5t30.5 156.5t9 141q0 227 -105 318q-79 67 -219 67q-101 0 -188.5 -38t-149.5 -103t-110 -147t-76 -175t-42.5 -181.5t-14.5 -170.5zM670.5 1572 q-4.5 20 11.5 34q29 25 58 52.5t46 44t19 19.5q25 22 37 37q63 70 141 70q42 0 78 -24.5t57 -63.5q20 -47 78 -117q18 -20 8 -44t-37 -24q-93 0 -143 62q-25 29 -70 102q-12 -13 -35.5 -37.5t-32 -33t-24.5 -23.5t-33 -29q-54 -45 -133 -45q-21 0 -25.5 20z" />
<glyph unicode="&#xd5;" horiz-adv-x="1492" d="M102 522q0 57 7.5 122t32.5 160t64.5 182.5t112 180.5t166.5 162q199 141 447 141q258 0 393 -132t135 -375q0 -77 -13.5 -163.5t-44 -183t-75 -187t-111.5 -173.5t-148 -145t-189.5 -99t-231.5 -37q-117 0 -229.5 39.5t-192.5 128.5q-123 136 -123 379zM328 518 q0 -61 12.5 -137.5t42.5 -128.5q42 -73 118.5 -108.5t157.5 -37.5q88 0 165.5 31t135 83.5t104.5 123t77.5 147.5t52 159.5t30.5 156.5t9 141q0 227 -105 318q-79 67 -219 67q-101 0 -188.5 -38t-149.5 -103t-110 -147t-76 -175t-42.5 -181.5t-14.5 -170.5zM680 1630l16 66 q17 58 40.5 81t60.5 23q22 0 86 -22l110 -39q1 0 27.5 -10t45.5 -14.5t36 -4.5q47 0 84 72q8 15 22 8q15 -4 11 -18l-17 -93q-9 -43 -28 -59t-68 -16q-36 0 -123 30l-111 33q-51 14 -69 14q-31 0 -51 -16t-37 -47q-7 -17 -25 -10q-6 3 -9.5 9.5t-0.5 12.5z" />
<glyph unicode="&#xd6;" horiz-adv-x="1492" d="M102 522q0 57 7.5 122t32.5 160t64.5 182.5t112 180.5t166.5 162q199 141 447 141q258 0 393 -132t135 -375q0 -77 -13.5 -163.5t-44 -183t-75 -187t-111.5 -173.5t-148 -145t-189.5 -99t-231.5 -37q-117 0 -229.5 39.5t-192.5 128.5q-123 136 -123 379zM328 518 q0 -61 12.5 -137.5t42.5 -128.5q42 -73 118.5 -108.5t157.5 -37.5q88 0 165.5 31t135 83.5t104.5 123t77.5 147.5t52 159.5t30.5 156.5t9 141q0 227 -105 318q-79 67 -219 67q-101 0 -188.5 -38t-149.5 -103t-110 -147t-76 -175t-42.5 -181.5t-14.5 -170.5zM668 1659 q0 65 45.5 111.5t103.5 46.5q53 0 80 -32t27 -75q0 -59 -44.5 -107.5t-107.5 -48.5q-43 0 -73.5 26.5t-30.5 78.5zM1055 1659q0 65 45.5 111.5t103.5 46.5q53 0 80 -32t27 -75q0 -59 -44.5 -107.5t-107.5 -48.5q-43 0 -73.5 26.5t-30.5 78.5z" />
<glyph unicode="&#xd8;" horiz-adv-x="1492" d="M79 2q0 -24 17 -39q20 -18 45.5 -17t42.5 21q32 41 103 121q43 -31 75.5 -50t113.5 -40t181 -21q109 0 209.5 32t178 87.5t137 121t102.5 140.5q95 160 135.5 328.5t40.5 292.5q0 62 -9 114.5t-27 92.5t-28 58t-28 44q60 70 113 117q17 18 14.5 41t-20.5 39 q-20 19 -46 18.5t-43 -20.5q-89 -108 -96 -117q-128 104 -366 104q-178 0 -343 -82.5t-284 -246.5q-93 -127 -146 -292t-53 -327q0 -75 10.5 -136.5t31.5 -106t35 -66.5t36 -51q-71 -79 -115 -119q-17 -17 -17 -41zM311 530q0 119 34.5 260t107.5 265q83 141 194.5 209.5 t267.5 68.5q162 0 250 -106l-823 -918q-31 78 -31 221zM403 219l822 916q22 -85 22 -193q0 -94 -17 -191.5t-49.5 -191t-82.5 -175.5t-112 -144t-144 -98t-172 -36q-160 0 -267 113z" />
<glyph unicode="&#xd9;" horiz-adv-x="1366" d="M131 213.5q-19 83.5 4 200.5l156 891q1 4 2 12t2 12q5 46 34 79.5t72 33.5h15h28q37 0 58.5 -30.5t9.5 -65.5q-22 -85 -25 -105l-127 -686q-1 -6 -7.5 -49t-8 -57t-4 -50.5t0 -56.5t9.5 -46t19 -46q31 -53 110 -82t150 -29q173 0 268 80q57 46 84 119.5t68 284.5l102 557 q22 129 25 163q3 44 36 73.5t78 29.5q38 0 61 -31.5t11 -68.5q-20 -65 -37 -154l-108 -584q-33 -171 -46 -227.5t-30 -99.5q-57 -161 -207 -234q-141 -72 -367 -72q-224 0 -342 95q-75 60 -94 143.5zM711 1737q-9 38 10 64t53 26q47 0 68 -24t35 -74q15 -59 108 -125 q31 -19 32 -40q1 -14 -16 -14q-78 0 -163 49q-70 53 -92 76.5t-35 61.5z" />
<glyph unicode="&#xda;" horiz-adv-x="1366" d="M131 213.5q-19 83.5 4 200.5l156 891q1 4 2 12t2 12q5 46 34 79.5t72 33.5h15h28q37 0 58.5 -30.5t9.5 -65.5q-22 -85 -25 -105l-127 -686q-1 -6 -7.5 -49t-8 -57t-4 -50.5t0 -56.5t9.5 -46t19 -46q31 -53 110 -82t150 -29q173 0 268 80q57 46 84 119.5t68 284.5l102 557 q22 129 25 163q3 44 36 73.5t78 29.5q38 0 61 -31.5t11 -68.5q-20 -65 -37 -154l-108 -584q-33 -171 -46 -227.5t-30 -99.5q-57 -161 -207 -234q-141 -72 -367 -72q-224 0 -342 95q-75 60 -94 143.5zM739 1574q7 18 29 32q96 66 111 125q12 49 33.5 73.5t68.5 24.5 q34 0 52.5 -26t8.5 -64q-12 -37 -33.5 -60t-93.5 -77q-83 -50 -161 -50q-23 0 -15 22z" />
<glyph unicode="&#xdb;" horiz-adv-x="1366" d="M131 213.5q-19 83.5 4 200.5l156 891q1 4 2 12t2 12q5 46 34 79.5t72 33.5h15h28q37 0 58.5 -30.5t9.5 -65.5q-22 -85 -25 -105l-127 -686q-1 -6 -7.5 -49t-8 -57t-4 -50.5t0 -56.5t9.5 -46t19 -46q31 -53 110 -82t150 -29q173 0 268 80q57 46 84 119.5t68 284.5l102 557 q22 129 25 163q3 44 36 73.5t78 29.5q38 0 61 -31.5t11 -68.5q-20 -65 -37 -154l-108 -584q-33 -171 -46 -227.5t-30 -99.5q-57 -161 -207 -234q-141 -72 -367 -72q-224 0 -342 95q-75 60 -94 143.5zM605 1572q-5 20 11 34q29 25 58 52.5t46 44t19 19.5q25 22 37 37 q63 70 142 70q42 0 78 -24.5t57 -63.5q21 -50 77 -117q18 -20 8.5 -44t-36.5 -24q-94 0 -144 62q-21 25 -69 102q-12 -13 -35.5 -37.5t-32 -33t-24.5 -23.5t-33 -29q-54 -45 -133 -45q-21 0 -26 20z" />
<glyph unicode="&#xdc;" horiz-adv-x="1366" d="M131 213.5q-19 83.5 4 200.5l156 891q1 4 2 12t2 12q5 46 34 79.5t72 33.5h15h28q37 0 58.5 -30.5t9.5 -65.5q-22 -85 -25 -105l-127 -686q-1 -6 -7.5 -49t-8 -57t-4 -50.5t0 -56.5t9.5 -46t19 -46q31 -53 110 -82t150 -29q173 0 268 80q57 46 84 119.5t68 284.5l102 557 q22 129 25 163q3 44 36 73.5t78 29.5q38 0 61 -31.5t11 -68.5q-20 -65 -37 -154l-108 -584q-33 -171 -46 -227.5t-30 -99.5q-57 -161 -207 -234q-141 -72 -367 -72q-224 0 -342 95q-75 60 -94 143.5zM584 1659q0 65 45.5 111.5t103.5 46.5q53 0 80 -32t27 -75 q0 -59 -44.5 -107.5t-107.5 -48.5q-43 0 -73.5 26.5t-30.5 78.5zM971 1659q0 65 45.5 111.5t103.5 46.5q53 0 80 -32t27 -75q0 -59 -44.5 -107.5t-107.5 -48.5q-43 0 -73.5 26.5t-30.5 78.5z" />
<glyph unicode="&#xdd;" d="M124 35.5q-5 27.5 30 64.5q11 15 78 90.5t77 88.5q91 113 158 260l-180 559q-2 6 -23 63.5t-24 69.5q-15 43 -45 115q-14 35 4.5 67t54.5 31q14 -2 41 -2t41 2q41 1 73.5 -30.5t41.5 -76.5q10 -53 32 -125l150 -495l37 57q38 60 96.5 152t88 138.5t65.5 105.5t58.5 99.5 t37.5 73.5q22 46 63.5 72.5t91.5 26.5h25h35q30 0 46.5 -24.5t-1.5 -47.5q-42 -50 -115 -158l-467 -684l-286 -419q-36 -42 -92.5 -73t-96.5 -28h-33h-18q-39 0 -44 27.5zM655 1574q7 18 29 32q96 66 111 125q12 49 33.5 73.5t68.5 24.5q34 0 52.5 -26t8.5 -64 q-12 -37 -33.5 -60t-93.5 -77q-83 -50 -161 -50q-23 0 -15 22z" />
<glyph unicode="&#xdf;" horiz-adv-x="1110" d="M-66 -403q-13 -36 15.5 -65t70.5 -32q48 -2 87.5 28t46.5 77l233 1245q40 206 69.5 296t78.5 152l11 12q10 11 14.5 15.5t17.5 16.5t23 18t27 15t33 14t37.5 8.5t44.5 3.5q73 0 117.5 -42t44.5 -116q0 -34 -11 -76t-34 -88.5t-67.5 -85t-102.5 -55.5q-50 -10 -88 -10 q-42 -2 -75 -27.5t-42 -64.5q-9 -35 15.5 -63t60.5 -28q157 0 223 -88q35 -46 35 -125q0 -106 -40 -201.5t-110.5 -154.5t-152.5 -59q-32 0 -53 6q-37 8 -70.5 -2.5t-44.5 -42.5q-12 -38 6.5 -74.5t57.5 -40.5q18 -2 63 -2q145 0 268.5 75t194.5 191q40 67 64 151t24 148 q0 126 -74 207q-63 69 -184 88q-62 12 -123 15q68 6 125 18q82 16 145.5 56t98 85.5t57 99t29 91.5t6.5 69q0 71 -29 125.5t-77.5 86t-105 47.5t-118.5 16q-94 0 -198.5 -35.5t-180.5 -105.5q-46 -44 -79.5 -99t-56 -129t-35 -132t-29.5 -159l-86 -499q-61 -337 -95 -483 t-82 -291z" />
<glyph unicode="&#xe0;" horiz-adv-x="1110" d="M43 324q0 -84 25.5 -151t68 -108t95 -62t110.5 -21q45 0 90 20t79.5 47t74 72t64 78.5t59 83t49.5 69.5q0 -11 -16.5 -113t-20.5 -147q-3 -37 24.5 -63.5t65.5 -24.5t67 26t29 60q0 118 45 371l37 203q40 219 74 362q9 38 -16.5 68t-61.5 18l-47 -16q-42 16 -67.5 24 t-67 15.5t-84.5 7.5q-184 0 -336 -115q-86 -64 -152 -151t-100 -165.5t-55.5 -162.5t-27 -135t-5.5 -90zM248 399q0 40 6 88.5t20.5 108.5t36.5 117.5t57 112.5t78.5 96.5t105 66.5t132.5 25q67 0 174 -33l-53 -285q-28 -150 -59.5 -244.5t-75.5 -158.5q-96 -139 -238 -139 q-95 0 -139.5 66t-44.5 179zM516 1419q-9 38 10.5 64t53.5 26q47 0 67.5 -24t34.5 -74q15 -58 109 -125q31 -19 32 -39q1 -14 -16 -14q-79 0 -164 49q-71 54 -92.5 77t-34.5 60z" />
<glyph unicode="&#xe1;" horiz-adv-x="1110" d="M43 324q0 -84 25.5 -151t68 -108t95 -62t110.5 -21q45 0 90 20t79.5 47t74 72t64 78.5t59 83t49.5 69.5q0 -11 -16.5 -113t-20.5 -147q-3 -37 24.5 -63.5t65.5 -24.5t67 26t29 60q0 118 45 371l37 203q40 219 74 362q9 38 -16.5 68t-61.5 18l-47 -16q-42 16 -67.5 24 t-67 15.5t-84.5 7.5q-184 0 -336 -115q-86 -64 -152 -151t-100 -165.5t-55.5 -162.5t-27 -135t-5.5 -90zM248 399q0 40 6 88.5t20.5 108.5t36.5 117.5t57 112.5t78.5 96.5t105 66.5t132.5 25q67 0 174 -33l-53 -285q-28 -150 -59.5 -244.5t-75.5 -158.5q-96 -139 -238 -139 q-95 0 -139.5 66t-44.5 179zM569 1254q8 18 29 32q96 66 111 125q12 49 33.5 73.5t68.5 24.5q34 0 52.5 -26t8.5 -64q-12 -37 -33.5 -60t-93.5 -77q-82 -49 -161 -49q-23 0 -15 21z" />
<glyph unicode="&#xe2;" horiz-adv-x="1110" d="M43 324q0 -84 25.5 -151t68 -108t95 -62t110.5 -21q45 0 90 20t79.5 47t74 72t64 78.5t59 83t49.5 69.5q0 -11 -16.5 -113t-20.5 -147q-3 -37 24.5 -63.5t65.5 -24.5t67 26t29 60q0 118 45 371l37 203q40 219 74 362q9 38 -16.5 68t-61.5 18l-47 -16q-42 16 -67.5 24 t-67 15.5t-84.5 7.5q-184 0 -336 -115q-86 -64 -152 -151t-100 -165.5t-55.5 -162.5t-27 -135t-5.5 -90zM248 399q0 40 6 88.5t20.5 108.5t36.5 117.5t57 112.5t78.5 96.5t105 66.5t132.5 25q67 0 174 -33l-53 -285q-28 -150 -59.5 -244.5t-75.5 -158.5q-96 -139 -238 -139 q-95 0 -139.5 66t-44.5 179zM433.5 1250.5q-4.5 19.5 11.5 33.5q29 25 58 52.5t45.5 44.5t18.5 20q25 22 37 37q62 69 142 69q42 0 78 -24.5t57 -63.5q19 -45 78 -116q18 -20 8 -44t-37 -24q-93 0 -143 61q-23 26 -70 103q-12 -13 -35.5 -37.5t-32 -33t-24.5 -23.5t-33 -29 q-54 -45 -133 -45q-21 0 -25.5 19.5z" />
<glyph unicode="&#xe3;" horiz-adv-x="1110" d="M43 324q0 -84 25.5 -151t68 -108t95 -62t110.5 -21q45 0 90 20t79.5 47t74 72t64 78.5t59 83t49.5 69.5q0 -11 -16.5 -113t-20.5 -147q-3 -37 24.5 -63.5t65.5 -24.5t67 26t29 60q0 118 45 371l37 203q40 219 74 362q9 38 -16.5 68t-61.5 18l-47 -16q-42 16 -67.5 24 t-67 15.5t-84.5 7.5q-184 0 -336 -115q-86 -64 -152 -151t-100 -165.5t-55.5 -162.5t-27 -135t-5.5 -90zM248 399q0 40 6 88.5t20.5 108.5t36.5 117.5t57 112.5t78.5 96.5t105 66.5t132.5 25q67 0 174 -33l-53 -285q-28 -150 -59.5 -244.5t-75.5 -158.5q-96 -139 -238 -139 q-95 0 -139.5 66t-44.5 179zM434 1319l17 65q17 58 40 81.5t60 23.5q19 0 86 -23l111 -39q5 -2 21.5 -7.5l28.5 -9.5t28.5 -7.5t29.5 -3.5q47 0 84 71q8 16 23 9q14 -3 10 -19l-17 -92q-9 -43 -28 -59.5t-68 -16.5q-33 0 -123 31l-110 33q-51 14 -70 14q-31 0 -51 -16 t-37 -47q-7 -18 -25 -11q-17 9 -10 23z" />
<glyph unicode="&#xe4;" horiz-adv-x="1110" d="M43 324q0 -84 25.5 -151t68 -108t95 -62t110.5 -21q45 0 90 20t79.5 47t74 72t64 78.5t59 83t49.5 69.5q0 -11 -16.5 -113t-20.5 -147q-3 -37 24.5 -63.5t65.5 -24.5t67 26t29 60q0 118 45 371l37 203q40 219 74 362q9 38 -16.5 68t-61.5 18l-47 -16q-42 16 -67.5 24 t-67 15.5t-84.5 7.5q-184 0 -336 -115q-86 -64 -152 -151t-100 -165.5t-55.5 -162.5t-27 -135t-5.5 -90zM248 399q0 40 6 88.5t20.5 108.5t36.5 117.5t57 112.5t78.5 96.5t105 66.5t132.5 25q67 0 174 -33l-53 -285q-28 -150 -59.5 -244.5t-75.5 -158.5q-96 -139 -238 -139 q-95 0 -139.5 66t-44.5 179zM461 1337q0 65 45.5 111.5t103.5 46.5q53 0 80 -31.5t27 -74.5q0 -59 -44.5 -107.5t-107.5 -48.5q-43 0 -73.5 26t-30.5 78zM848 1337q0 65 46 111.5t104 46.5q53 0 79.5 -31.5t26.5 -74.5q0 -59 -44.5 -107.5t-106.5 -48.5q-43 0 -74 26t-31 78 z" />
<glyph unicode="&#xe5;" horiz-adv-x="1110" d="M43 324q0 -84 25.5 -151t68 -108t95 -62t110.5 -21q45 0 90 20t79.5 47t74 72t64 78.5t59 83t49.5 69.5q0 -11 -16.5 -113t-20.5 -147q-3 -37 24.5 -63.5t65.5 -24.5t67 26t29 60q0 118 45 371l37 203q40 219 74 362q9 38 -16.5 68t-61.5 18l-47 -16q-42 16 -67.5 24 t-67 15.5t-84.5 7.5q-184 0 -336 -115q-86 -64 -152 -151t-100 -165.5t-55.5 -162.5t-27 -135t-5.5 -90zM248 399q0 40 6 88.5t20.5 108.5t36.5 117.5t57 112.5t78.5 96.5t105 66.5t132.5 25q67 0 174 -33l-53 -285q-28 -150 -59.5 -244.5t-75.5 -158.5q-96 -139 -238 -139 q-95 0 -139.5 66t-44.5 179zM627 1333q0 76 56 139.5t140 63.5q58 0 97.5 -38.5t39.5 -96.5q0 -75 -59.5 -142t-144.5 -67q-65 0 -97 44t-32 97zM696 1333q0 -35 19 -54t47 -19q44 0 83.5 38.5t39.5 94.5q0 36 -21.5 53.5t-50.5 17.5q-49 0 -83 -39.5t-34 -91.5z" />
<glyph unicode="&#xe6;" horiz-adv-x="1607" d="M31 319q0 39 5.5 90t27 135.5t55.5 163t100 165.5t152 151q152 115 336 115q43 0 84.5 -7.5t67 -15.5t67.5 -24l47 16q31 9 54.5 -11.5t25.5 -52.5q83 57 150.5 82t137.5 25q140 0 215.5 -68.5t75.5 -177.5q0 -110 -65 -207q-65 -102 -197 -168q-68 -33 -150 -50.5 t-133.5 -21t-164.5 -7.5q-1 -7 -1.5 -19.5t2.5 -48t10.5 -67.5t27 -71.5t48.5 -67.5t79 -47t114 -19q101 0 201 41q20 9 35.5 -8t9.5 -40q-11 -39 -37.5 -69t-62.5 -39q-107 -21 -193 -21q-106 3 -182.5 31.5t-122 80.5t-69 116t-31.5 149q-11 -15 -50 -71t-61 -85.5 t-64.5 -77.5t-76 -74t-79 -46.5t-89.5 -20.5q-58 0 -110.5 21t-95 62t-68 108t-25.5 151zM236 395q0 -113 44.5 -179t139.5 -66q141 0 237 139q84 122 136 403l53 285q-107 33 -174 33q-71 0 -132.5 -25t-105 -66.5t-78.5 -96.5t-57 -112.5t-36.5 -117.5t-20.5 -108.5 t-6 -88.5zM928 498q207 3 407 192q99 96 99 205q0 65 -40 100t-98 35q-118 0 -219 -117q-108 -120 -149 -415z" />
<glyph unicode="&#xe7;" horiz-adv-x="854" d="M61 428q0 -242 175 -367q75 -54 184 -73q-6 -21 -27 -74q-3 -9 -3 -18t2 -17t7 -17t10 -16t13.5 -15.5l14.5 -14.5t15.5 -15t14.5 -14q16 -19 16 -49q0 -39 -34 -74t-91 -35q-10 0 -30 4q-56 13 -70 -24q-6 -21 4 -41t31 -21q24 -4 37 -4q66 0 119.5 20.5t84.5 52.5 t47.5 66t16.5 66q0 29 -11 51t-25.5 32.5t-35 17t-33.5 7.5t-26 1l41 120q81 0 143 9q38 3 68.5 27t42.5 59q9 24 -2.5 45t-34.5 14q-75 -22 -139 -22q-165 0 -246 114q-57 81 -57 219q0 107 31 207.5t86 179.5t140 127t185 48q47 0 94 -15q30 -12 64 -4t45 37q14 32 3 67 t-44 41q-57 13 -133 13q-136 0 -252 -44t-196 -116t-136.5 -165.5t-82.5 -192.5t-26 -197z" />
<glyph unicode="&#xe8;" horiz-adv-x="980" d="M66 428q2 -103 20.5 -179t62.5 -139.5t125.5 -98t200.5 -38.5q86 0 193 21q36 9 62.5 39t37.5 69q6 23 -9.5 40t-35.5 8q-100 -41 -201 -41q-64 0 -112 18.5t-73.5 48.5t-41.5 66t-19 72.5t-3 66.5t3 49l3 19q112 4 163 7.5t133 21t150 50.5q132 66 197 168q65 97 65 207 q0 109 -75.5 177.5t-215.5 68.5q-114 0 -237 -55.5t-221 -175.5q-65 -81 -118.5 -209.5t-53.5 -280.5zM285 496q14 111 50 228.5t97 186.5q101 117 219 117q58 0 97.5 -35t39.5 -100q0 -110 -98 -205q-200 -189 -405 -192zM473 1419q-9 38 10.5 64t53.5 26q47 0 67.5 -24 t34.5 -74q15 -58 109 -125q31 -19 32 -39q1 -14 -16 -14q-79 0 -164 49q-71 54 -92.5 77t-34.5 60z" />
<glyph unicode="&#xe9;" horiz-adv-x="980" d="M66 428q2 -103 20.5 -179t62.5 -139.5t125.5 -98t200.5 -38.5q86 0 193 21q36 9 62.5 39t37.5 69q6 23 -9.5 40t-35.5 8q-100 -41 -201 -41q-64 0 -112 18.5t-73.5 48.5t-41.5 66t-19 72.5t-3 66.5t3 49l3 19q112 4 163 7.5t133 21t150 50.5q132 66 197 168q65 97 65 207 q0 109 -75.5 177.5t-215.5 68.5q-114 0 -237 -55.5t-221 -175.5q-65 -81 -118.5 -209.5t-53.5 -280.5zM285 496q14 111 50 228.5t97 186.5q101 117 219 117q58 0 97.5 -35t39.5 -100q0 -110 -98 -205q-200 -189 -405 -192zM608 1254q8 18 29 32q96 66 111 125 q12 49 33.5 73.5t68.5 24.5q34 0 52.5 -26t8.5 -64q-12 -37 -33.5 -60t-93.5 -77q-82 -49 -161 -49q-23 0 -15 21z" />
<glyph unicode="&#xea;" horiz-adv-x="980" d="M66 428q2 -103 20.5 -179t62.5 -139.5t125.5 -98t200.5 -38.5q86 0 193 21q36 9 62.5 39t37.5 69q6 23 -9.5 40t-35.5 8q-100 -41 -201 -41q-64 0 -112 18.5t-73.5 48.5t-41.5 66t-19 72.5t-3 66.5t3 49l3 19q112 4 163 7.5t133 21t150 50.5q132 66 197 168q65 97 65 207 q0 109 -75.5 177.5t-215.5 68.5q-114 0 -237 -55.5t-221 -175.5q-65 -81 -118.5 -209.5t-53.5 -280.5zM285 496q14 111 50 228.5t97 186.5q101 117 219 117q58 0 97.5 -35t39.5 -100q0 -110 -98 -205q-200 -189 -405 -192zM390 1250.5q-5 19.5 11 33.5q29 25 58 52.5 t46 44.5t19 20q25 22 37 37q62 69 141 69q42 0 78.5 -24.5t57.5 -63.5q20 -47 77 -116q18 -20 8.5 -44t-36.5 -24q-94 0 -144 61q-19 22 -69 103q-12 -13 -35.5 -37.5t-32 -33t-24.5 -23.5t-33 -29q-54 -45 -133 -45q-21 0 -26 19.5z" />
<glyph unicode="&#xeb;" horiz-adv-x="980" d="M66 428q2 -103 20.5 -179t62.5 -139.5t125.5 -98t200.5 -38.5q86 0 193 21q36 9 62.5 39t37.5 69q6 23 -9.5 40t-35.5 8q-100 -41 -201 -41q-64 0 -112 18.5t-73.5 48.5t-41.5 66t-19 72.5t-3 66.5t3 49l3 19q112 4 163 7.5t133 21t150 50.5q132 66 197 168q65 97 65 207 q0 109 -75.5 177.5t-215.5 68.5q-114 0 -237 -55.5t-221 -175.5q-65 -81 -118.5 -209.5t-53.5 -280.5zM285 496q14 111 50 228.5t97 186.5q101 117 219 117q58 0 97.5 -35t39.5 -100q0 -110 -98 -205q-200 -189 -405 -192zM346 1337q0 65 46 111.5t104 46.5q53 0 79.5 -31.5 t26.5 -74.5q0 -59 -44.5 -107.5t-106.5 -48.5q-43 0 -74 26t-31 78zM733 1337q0 65 46 111.5t104 46.5q53 0 79.5 -31.5t26.5 -74.5q0 -59 -44.5 -107.5t-106.5 -48.5q-43 0 -74 26t-31 78z" />
<glyph unicode="&#xec;" horiz-adv-x="468" d="M55 113q-11 -39 11.5 -71.5t60.5 -31.5h16q44 0 78 27t37 69q11 132 59 398l60 334q7 41 14 77.5t14 67.5t9 43q8 38 -17 66.5t-61 19.5q-42 -7 -76 -12q-34 -3 -48.5 -35.5t-12.5 -73.5q3 -100 -66 -481l-37 -201q-10 -57 -41 -196zM164 1419q-9 38 10.5 64t53.5 26 q47 0 67.5 -24t34.5 -74q15 -58 109 -125q31 -19 32 -39q1 -14 -16 -14q-79 0 -164 49q-71 54 -92.5 77t-34.5 60z" />
<glyph unicode="&#xed;" horiz-adv-x="468" d="M55 113q-11 -39 11.5 -71.5t60.5 -31.5h16q44 0 78 27t37 69q11 132 59 398l60 334q7 41 14 77.5t14 67.5t9 43q8 38 -17 66.5t-61 19.5q-42 -7 -76 -12q-34 -3 -48.5 -35.5t-12.5 -73.5q3 -100 -66 -481l-37 -201q-10 -57 -41 -196zM237 1254q8 18 29 32q96 66 111 125 q12 49 33.5 73.5t68.5 24.5q34 0 52.5 -26t8.5 -64q-12 -37 -33.5 -60t-93.5 -77q-82 -49 -161 -49q-23 0 -15 21z" />
<glyph unicode="&#xee;" horiz-adv-x="468" d="M55 113q-11 -39 11.5 -71.5t60.5 -31.5h16q44 0 78 27t37 69q11 132 59 398l60 334q7 41 14 77.5t14 67.5t9 43q8 38 -17 66.5t-61 19.5q-42 -7 -76 -12q-34 -3 -48.5 -35.5t-12.5 -73.5q3 -100 -66 -481l-37 -201q-10 -57 -41 -196zM81.5 1250.5q-4.5 19.5 11.5 33.5 q29 25 58 52.5t45.5 44.5t18.5 20q25 22 37 37q62 69 142 69q42 0 78 -24.5t57 -63.5q19 -45 78 -116q18 -20 8 -44t-37 -24q-93 0 -143 61q-23 26 -70 103q-12 -13 -35.5 -37.5t-32 -33t-24.5 -23.5t-33 -29q-54 -45 -133 -45q-21 0 -25.5 19.5z" />
<glyph unicode="&#xef;" horiz-adv-x="468" d="M37 1337q0 65 45.5 111.5t103.5 46.5q53 0 80 -31.5t27 -74.5q0 -59 -44.5 -107.5t-107.5 -48.5q-43 0 -73.5 26t-30.5 78zM55 113q-11 -39 11.5 -71.5t60.5 -31.5h16q44 0 78 27t37 69q11 132 59 398l60 334q7 41 14 77.5t14 67.5t9 43q8 38 -17 66.5t-61 19.5 q-42 -7 -76 -12q-34 -3 -48.5 -35.5t-12.5 -73.5q3 -100 -66 -481l-37 -201q-10 -57 -41 -196zM424 1337q0 65 46 111.5t104 46.5q53 0 79.5 -31.5t26.5 -74.5q0 -59 -44.5 -107.5t-106.5 -48.5q-43 0 -74 26t-31 78z" />
<glyph unicode="&#xf1;" d="M53 100q-10 -35 15.5 -62.5t64.5 -25.5h17q44 0 77.5 27.5t36.5 69.5q3 62 17 149l36 240q12 76 21.5 122.5t35 113.5t60.5 112q45 60 119.5 100.5t144.5 40.5q30 0 53 -3t41 -11t31 -16.5t21 -26t13 -32t5 -42.5t-1 -49t-6.5 -59.5t-10 -67t-13.5 -78.5l-24 -137 q-44 -253 -76 -365q-9 -35 15 -63.5t61 -26.5h18q45 0 78.5 29.5t36.5 73.5q7 114 51 358l51 287q25 136 25 178q0 60 -24.5 103.5t-65.5 66.5t-84 33t-90 10q-154 0 -287 -102q-26 -21 -54 -69t-54 -103t-39 -74q3 18 47 243q7 36 -20 62t-64 18q-47 -8 -70 -10 q-33 -3 -48 -33.5t-13 -70.5v-13q0 -80 -31 -266l-66 -385q-22 -150 -51 -246zM424 1319l17 65q17 58 40 81.5t60 23.5q19 0 86 -23l111 -39q5 -2 21.5 -7.5l28.5 -9.5t28.5 -7.5t29.5 -3.5q47 0 84 71q8 16 23 9q14 -3 10 -19l-17 -92q-9 -43 -28 -59.5t-68 -16.5 q-33 0 -123 31l-110 33q-51 14 -70 14q-31 0 -51 -16t-37 -47q-7 -18 -25 -11q-17 9 -10 23z" />
<glyph unicode="&#xf2;" d="M53 397q0 -210 117 -317q112 -103 289 -103q107 0 200.5 35.5t162 96.5t122.5 139t87 166t50 175t17 169q0 183 -101 282q-102 105 -301 105q-125 0 -232.5 -46t-181.5 -122t-127 -174t-77.5 -201.5t-24.5 -204.5zM258 373q0 38 5 86.5t18.5 111t33.5 123t53 119 t73.5 103t98.5 71.5t126 27q94 0 155 -56q68 -63 68 -192q0 -27 -3.5 -68t-15 -105.5t-29.5 -128t-50 -129.5t-73.5 -115.5t-104 -81.5t-136.5 -32q-96 0 -157.5 65t-61.5 202zM547 1419q-9 38 10.5 64t53.5 26q47 0 67.5 -24t34.5 -74q15 -58 109 -125q31 -19 32 -39 q1 -14 -16 -14q-79 0 -164 49q-71 54 -92.5 77t-34.5 60z" />
<glyph unicode="&#xf3;" d="M53 397q0 -210 117 -317q112 -103 289 -103q107 0 200.5 35.5t162 96.5t122.5 139t87 166t50 175t17 169q0 183 -101 282q-102 105 -301 105q-125 0 -232.5 -46t-181.5 -122t-127 -174t-77.5 -201.5t-24.5 -204.5zM258 373q0 38 5 86.5t18.5 111t33.5 123t53 119 t73.5 103t98.5 71.5t126 27q94 0 155 -56q68 -63 68 -192q0 -27 -3.5 -68t-15 -105.5t-29.5 -128t-50 -129.5t-73.5 -115.5t-104 -81.5t-136.5 -32q-96 0 -157.5 65t-61.5 202zM620 1254q8 18 29 32q96 66 111 125q12 49 33.5 73.5t68.5 24.5q34 0 52.5 -26t8.5 -64 q-12 -37 -33.5 -60t-93.5 -77q-82 -49 -161 -49q-23 0 -15 21z" />
<glyph unicode="&#xf4;" d="M53 397q0 -210 117 -317q112 -103 289 -103q107 0 200.5 35.5t162 96.5t122.5 139t87 166t50 175t17 169q0 183 -101 282q-102 105 -301 105q-125 0 -232.5 -46t-181.5 -122t-127 -174t-77.5 -201.5t-24.5 -204.5zM258 373q0 38 5 86.5t18.5 111t33.5 123t53 119 t73.5 103t98.5 71.5t126 27q94 0 155 -56q68 -63 68 -192q0 -27 -3.5 -68t-15 -105.5t-29.5 -128t-50 -129.5t-73.5 -115.5t-104 -81.5t-136.5 -32q-96 0 -157.5 65t-61.5 202zM423.5 1250.5q-4.5 19.5 11.5 33.5q29 25 58 52.5t45.5 44.5t18.5 20q25 22 37 37q62 69 142 69 q42 0 78 -24.5t57 -63.5q19 -45 78 -116q18 -20 8 -44t-37 -24q-93 0 -143 61q-23 26 -70 103q-12 -13 -35.5 -37.5t-32 -33t-24.5 -23.5t-33 -29q-54 -45 -133 -45q-21 0 -25.5 19.5z" />
<glyph unicode="&#xf5;" d="M53 397q0 -210 117 -317q112 -103 289 -103q107 0 200.5 35.5t162 96.5t122.5 139t87 166t50 175t17 169q0 183 -101 282q-102 105 -301 105q-125 0 -232.5 -46t-181.5 -122t-127 -174t-77.5 -201.5t-24.5 -204.5zM258 373q0 38 5 86.5t18.5 111t33.5 123t53 119 t73.5 103t98.5 71.5t126 27q94 0 155 -56q68 -63 68 -192q0 -27 -3.5 -68t-15 -105.5t-29.5 -128t-50 -129.5t-73.5 -115.5t-104 -81.5t-136.5 -32q-96 0 -157.5 65t-61.5 202zM424 1319l17 65q17 58 40 81.5t60 23.5q19 0 86 -23l111 -39q5 -2 21.5 -7.5l28.5 -9.5 t28.5 -7.5t29.5 -3.5q47 0 84 71q8 16 23 9q14 -3 10 -19l-17 -92q-9 -43 -28 -59.5t-68 -16.5q-33 0 -123 31l-110 33q-51 14 -70 14q-31 0 -51 -16t-37 -47q-7 -18 -25 -11q-17 9 -10 23z" />
<glyph unicode="&#xf6;" d="M53 397q0 -210 117 -317q112 -103 289 -103q107 0 200.5 35.5t162 96.5t122.5 139t87 166t50 175t17 169q0 183 -101 282q-102 105 -301 105q-125 0 -232.5 -46t-181.5 -122t-127 -174t-77.5 -201.5t-24.5 -204.5zM258 373q0 38 5 86.5t18.5 111t33.5 123t53 119 t73.5 103t98.5 71.5t126 27q94 0 155 -56q68 -63 68 -192q0 -27 -3.5 -68t-15 -105.5t-29.5 -128t-50 -129.5t-73.5 -115.5t-104 -81.5t-136.5 -32q-96 0 -157.5 65t-61.5 202zM434 1337q0 65 45.5 111.5t103.5 46.5q53 0 80 -31.5t27 -74.5q0 -59 -44.5 -107.5 t-107.5 -48.5q-43 0 -73.5 26t-30.5 78zM821 1337q0 65 46 111.5t104 46.5q53 0 79.5 -31.5t26.5 -74.5q0 -59 -44.5 -107.5t-106.5 -48.5q-43 0 -74 26t-31 78z" />
<glyph unicode="&#xf7;" d="M53 596q-6 -34 14 -58t54 -24h983q34 0 62 24t34 58q5 34 -14 57t-53 23h-983q-34 0 -62.5 -23.5t-34.5 -56.5zM461 297q-8 -48 18.5 -80.5t75.5 -32.5q54 0 91.5 34t45.5 81q9 47 -17.5 81t-76.5 34q-51 0 -89.5 -34.5t-47.5 -82.5zM565 889q-8 -48 18.5 -80.5 t75.5 -32.5q53 0 91.5 34t46.5 81q9 47 -18 81t-77 34q-52 0 -90.5 -34.5t-46.5 -82.5z" />
<glyph unicode="&#xf8;" d="M46 -12.5q2 -20.5 17 -34.5q15 -13 36.5 -12t33.5 16l76 94q106 -76 260 -76q104 0 202.5 35.5t174.5 102.5q71 61 123 148.5t78.5 179.5t38.5 172t12 151q0 67 -13.5 120t-25 74t-31.5 48l76 84q13 14 12 33.5t-16 31.5q-20 14 -41.5 15t-36.5 -15l-66 -82 q-34 22 -58.5 34.5t-79 25t-122.5 12.5q-140 0 -266.5 -55.5t-214.5 -178.5q-79 -113 -117.5 -256.5t-38.5 -259.5q0 -181 82 -280l-84 -92q-13 -15 -11 -35.5zM256 379q0 32 4 75t15.5 105t30 122t51 121t74.5 106.5t104.5 74.5t136.5 29q45 0 81.5 -12t54 -24t40.5 -32 l-582 -680q-10 41 -10 115zM313 174l592 690v-78q0 -169 -47.5 -327t-114.5 -236q-101 -119 -258 -119q-43 0 -78.5 12t-52 24t-41.5 34z" />
<glyph unicode="&#xf9;" horiz-adv-x="1110" d="M66 201q0 -107 72.5 -164t180.5 -57q129 0 230 71q40 28 76.5 84.5t66.5 119t39 75.5q-26 -146 -29 -221q-3 -43 28 -75t75 -32q40 0 68.5 28.5t27.5 67.5v17q0 108 70 499q46 264 92 426q10 33 -16 58.5t-62 19.5q-6 -1 -22 -4t-25 -4q-41 -7 -66.5 -43t-27.5 -82 q-3 -82 -35 -252q-60 -312 -127 -428q-31 -51 -70.5 -86t-78.5 -49t-64.5 -18.5t-48.5 -4.5q-79 0 -114.5 40.5t-35.5 105.5q0 56 31 196l59 302q23 108 54 229q11 40 -16.5 69.5t-67.5 20.5q-8 -1 -24.5 -4t-24.5 -4q-38 -6 -58.5 -42t-23.5 -83q-3 -36 -15 -98l-102 -545 q-16 -101 -16 -133zM526 1419q-9 38 10.5 64t53.5 26q47 0 67.5 -24t34.5 -74q15 -58 109 -125q31 -19 32 -39q1 -14 -16 -14q-79 0 -164 49q-71 54 -92.5 77t-34.5 60z" />
<glyph unicode="&#xfa;" horiz-adv-x="1110" d="M66 201q0 -107 72.5 -164t180.5 -57q129 0 230 71q40 28 76.5 84.5t66.5 119t39 75.5q-26 -146 -29 -221q-3 -43 28 -75t75 -32q40 0 68.5 28.5t27.5 67.5v17q0 108 70 499q46 264 92 426q10 33 -16 58.5t-62 19.5q-6 -1 -22 -4t-25 -4q-41 -7 -66.5 -43t-27.5 -82 q-3 -82 -35 -252q-60 -312 -127 -428q-31 -51 -70.5 -86t-78.5 -49t-64.5 -18.5t-48.5 -4.5q-79 0 -114.5 40.5t-35.5 105.5q0 56 31 196l59 302q23 108 54 229q11 40 -16.5 69.5t-67.5 20.5q-8 -1 -24.5 -4t-24.5 -4q-38 -6 -58.5 -42t-23.5 -83q-3 -36 -15 -98l-102 -545 q-16 -101 -16 -133zM579 1254q8 18 29 32q96 66 111 125q12 49 33.5 73.5t68.5 24.5q34 0 52.5 -26t8.5 -64q-12 -37 -33.5 -60t-93.5 -77q-82 -49 -161 -49q-23 0 -15 21z" />
<glyph unicode="&#xfb;" horiz-adv-x="1110" d="M66 201q0 -107 72.5 -164t180.5 -57q129 0 230 71q40 28 76.5 84.5t66.5 119t39 75.5q-26 -146 -29 -221q-3 -43 28 -75t75 -32q40 0 68.5 28.5t27.5 67.5v17q0 108 70 499q46 264 92 426q10 33 -16 58.5t-62 19.5q-6 -1 -22 -4t-25 -4q-41 -7 -66.5 -43t-27.5 -82 q-3 -82 -35 -252q-60 -312 -127 -428q-31 -51 -70.5 -86t-78.5 -49t-64.5 -18.5t-48.5 -4.5q-79 0 -114.5 40.5t-35.5 105.5q0 56 31 196l59 302q23 108 54 229q11 40 -16.5 69.5t-67.5 20.5q-8 -1 -24.5 -4t-24.5 -4q-38 -6 -58.5 -42t-23.5 -83q-3 -36 -15 -98l-102 -545 q-16 -101 -16 -133zM402.5 1250.5q-4.5 19.5 11.5 33.5q29 25 58 52.5t45.5 44.5t18.5 20q25 22 37 37q62 69 142 69q42 0 78 -24.5t57 -63.5q19 -45 78 -116q18 -20 8 -44t-37 -24q-93 0 -143 61q-23 26 -70 103q-12 -13 -35.5 -37.5t-32 -33t-24.5 -23.5t-33 -29 q-54 -45 -133 -45q-21 0 -25.5 19.5z" />
<glyph unicode="&#xfc;" horiz-adv-x="1110" d="M66 201q0 -107 72.5 -164t180.5 -57q129 0 230 71q40 28 76.5 84.5t66.5 119t39 75.5q-26 -146 -29 -221q-3 -43 28 -75t75 -32q40 0 68.5 28.5t27.5 67.5v17q0 108 70 499q46 264 92 426q10 33 -16 58.5t-62 19.5q-6 -1 -22 -4t-25 -4q-41 -7 -66.5 -43t-27.5 -82 q-3 -82 -35 -252q-60 -312 -127 -428q-31 -51 -70.5 -86t-78.5 -49t-64.5 -18.5t-48.5 -4.5q-79 0 -114.5 40.5t-35.5 105.5q0 56 31 196l59 302q23 108 54 229q11 40 -16.5 69.5t-67.5 20.5q-8 -1 -24.5 -4t-24.5 -4q-38 -6 -58.5 -42t-23.5 -83q-3 -36 -15 -98l-102 -545 q-16 -101 -16 -133zM377 1337q0 65 45.5 111.5t103.5 46.5q53 0 80 -31.5t27 -74.5q0 -59 -44.5 -107.5t-107.5 -48.5q-43 0 -73.5 26t-30.5 78zM764 1337q0 65 46 111.5t104 46.5q53 0 79.5 -31.5t26.5 -74.5q0 -59 -44.5 -107.5t-106.5 -48.5q-43 0 -74 26t-31 78z" />
<glyph unicode="&#xfd;" horiz-adv-x="980" d="M-74 -420q-12 -40 14.5 -72t67.5 -28q48 6 91.5 19.5t78.5 29t70 43t60 49.5t54 60.5t46.5 63.5t44 72t40 72t39.5 76l334 733q82 193 140 297q13 26 16 31q17 29 1 58.5t-50 29.5h-19q-49 3 -87 -29t-54 -84q-57 -183 -252 -643l-100 -233l-92 676q-18 137 -21 198 q-5 47 -38 80.5t-79 32.5h-20h-23q-37 2 -60 -28t-11 -66q32 -113 65 -305q37 -211 53.5 -326.5t30.5 -286.5q4 -43 40.5 -71.5t86.5 -36.5l-53 -98q-17 -31 -30.5 -52.5t-41 -56.5t-55.5 -57.5t-69.5 -41t-86.5 -20.5q-46 -3 -83 -25t-48 -61zM512 1254q8 18 29 32 q96 66 111 125q12 49 33.5 73.5t68.5 24.5q34 0 52.5 -26t8.5 -64q-12 -37 -33.5 -60t-93.5 -77q-82 -49 -161 -49q-23 0 -15 21z" />
<glyph unicode="&#xff;" horiz-adv-x="980" d="M-74 -420q-12 -40 14.5 -72t67.5 -28q48 6 91.5 19.5t78.5 29t70 43t60 49.5t54 60.5t46.5 63.5t44 72t40 72t39.5 76l334 733q82 193 140 297q13 26 16 31q17 29 1 58.5t-50 29.5h-19q-49 3 -87 -29t-54 -84q-57 -183 -252 -643l-100 -233l-92 676q-18 137 -21 198 q-5 47 -38 80.5t-79 32.5h-20h-23q-37 2 -60 -28t-11 -66q32 -113 65 -305q37 -211 53.5 -326.5t30.5 -286.5q4 -43 40.5 -71.5t86.5 -36.5l-53 -98q-17 -31 -30.5 -52.5t-41 -56.5t-55.5 -57.5t-69.5 -41t-86.5 -20.5q-46 -3 -83 -25t-48 -61zM291 1337q0 65 45.5 111.5 t103.5 46.5q53 0 80 -31.5t27 -74.5q0 -59 -44.5 -107.5t-107.5 -48.5q-43 0 -73.5 26t-30.5 78zM678 1337q0 65 46 111.5t104 46.5q53 0 79.5 -31.5t26.5 -74.5q0 -59 -44.5 -107.5t-106.5 -48.5q-43 0 -74 26t-31 78z" />
<glyph unicode="&#x152;" horiz-adv-x="1835" d="M111 516q0 -90 18.5 -170t58.5 -149t99 -119t144.5 -78.5t189.5 -28.5q15 0 172 11q85 11 171.5 16t133 5.5t155.5 0.5q212 0 312 -4q48 0 87 31t54 78q9 28 -10 49t-47 12q-114 -31 -295 -31q-160 0 -187 15q-30 14 -32.5 49t10.5 98l76 391q12 0 54 2t56 2q63 0 86 -2 q48 -5 88.5 16.5t50.5 63.5q7 34 -17 59t-58 19q-57 -9 -152 -12h-80l90 465q246 6 285 6q75 0 148 -11q39 -5 71.5 14t38.5 54q6 34 -15.5 60.5t-56.5 25.5q-185 -8 -399 -8q-147 0 -293 14q-137 13 -188 13q-114 0 -206.5 -28.5t-184.5 -88.5q-101 -67 -180 -162 t-124 -187.5t-74.5 -191.5t-39.5 -170.5t-10 -128.5zM340 547q0 58 8.5 124.5t29 143.5t50 150t76 140.5t103 118t134 81t166.5 30.5q49 0 89.5 -8t62.5 -16.5t53 -24.5q-10 -118 -35 -264q-75 -470 -153 -840q-56 -38 -104 -54.5t-132 -16.5q-82 0 -144 23.5t-100 63 t-62 97t-33 118t-9 134.5z" />
<glyph unicode="&#x153;" horiz-adv-x="1640" d="M47 319q0 39 5.5 90t27 135.5t55.5 163t100 165.5t152 151q152 115 336 115q129 0 207 -47q13 -6 36 -27t31 -33q112 71 193.5 94t165.5 25q140 0 215.5 -68.5t75.5 -177.5t-66 -207q-65 -102 -197 -168q-68 -33 -150 -50.5t-133.5 -21t-164.5 -7.5q-1 -7 -1.5 -19.5 t2.5 -48t10.5 -67.5t27.5 -71.5t49 -67.5t79 -47t114 -19q100 0 200 41q20 9 35.5 -8t9.5 -40q-11 -39 -37.5 -69t-62.5 -39q-107 -21 -193 -21q-105 3 -181 31.5t-121.5 80.5t-69.5 116t-33 149q-12 -17 -50 -71t-60.5 -85t-64 -78.5t-75 -73.5t-79 -46.5t-89.5 -20.5 q-58 0 -110.5 21t-95 62t-68 108t-25.5 151zM252 395q0 -113 44.5 -179t139.5 -66q64 0 121 31.5t97.5 82t74.5 115t55.5 129.5t36.5 127.5t21 106t6 67.5q0 39 -9 89t-22 63q-16 16 -26 24t-37.5 16.5t-65.5 8.5q-71 0 -132.5 -25t-105 -66.5t-78.5 -96.5t-57 -112.5 t-36.5 -117.5t-20.5 -108.5t-6 -88.5zM944 498q206 3 406 192q98 95 98 205q0 65 -39.5 100t-97.5 35q-118 0 -219 -117q-62 -70 -99 -190t-49 -225z" />
<glyph unicode="&#x178;" d="M124 35.5q-5 27.5 30 64.5q11 15 78 90.5t77 88.5q91 113 158 260l-180 559q-2 6 -23 63.5t-24 69.5q-15 43 -45 115q-14 35 4.5 67t54.5 31q14 -2 41 -2t41 2q41 1 73.5 -30.5t41.5 -76.5q10 -53 32 -125l150 -495l37 57q38 60 96.5 152t88 138.5t65.5 105.5t58.5 99.5 t37.5 73.5q22 46 63.5 72.5t91.5 26.5h25h35q30 0 46.5 -24.5t-1.5 -47.5q-42 -50 -115 -158l-467 -684l-286 -419q-36 -42 -92.5 -73t-96.5 -28h-33h-18q-39 0 -44 27.5zM457 1659q0 65 45.5 111.5t103.5 46.5q53 0 80 -32t27 -75q0 -59 -44.5 -107.5t-107.5 -48.5 q-43 0 -73.5 26.5t-30.5 78.5zM844 1659q0 65 45.5 111.5t103.5 46.5q53 0 80 -32t27 -75q0 -59 -44.5 -107.5t-107.5 -48.5q-43 0 -73.5 26.5t-30.5 78.5z" />
<glyph unicode="&#x2c6;" horiz-adv-x="468" d="M-31.5 1250.5q-4.5 19.5 11.5 33.5q29 25 58 52.5t45.5 44.5t18.5 20q25 22 37 37q62 69 142 69q42 0 78 -24.5t57 -63.5q19 -45 78 -116q18 -20 8 -44t-37 -24q-93 0 -143 61q-23 26 -70 103q-12 -13 -35.5 -37.5t-32 -33t-24.5 -23.5t-33 -29q-54 -45 -133 -45 q-21 0 -25.5 19.5z" />
<glyph unicode="&#x2dc;" horiz-adv-x="468" d="M-35 1319l17 65q17 58 40.5 81.5t59.5 23.5q19 0 86 -23l111 -39q5 -2 21.5 -7.5l28.5 -9.5t28.5 -7.5t29.5 -3.5q47 0 84 71q8 16 23 9q14 -3 10 -19l-17 -92q-9 -43 -28 -59.5t-68 -16.5q-33 0 -123 31l-110 33q-51 14 -70 14q-31 0 -51 -16t-37 -47q-7 -18 -25 -11 q-17 9 -10 23z" />
<glyph unicode="&#x2000;" horiz-adv-x="926" />
<glyph unicode="&#x2001;" horiz-adv-x="1853" />
<glyph unicode="&#x2002;" horiz-adv-x="926" />
<glyph unicode="&#x2003;" horiz-adv-x="1853" />
<glyph unicode="&#x2004;" horiz-adv-x="617" />
<glyph unicode="&#x2005;" horiz-adv-x="463" />
<glyph unicode="&#x2006;" horiz-adv-x="308" />
<glyph unicode="&#x2007;" horiz-adv-x="308" />
<glyph unicode="&#x2008;" horiz-adv-x="231" />
<glyph unicode="&#x2009;" horiz-adv-x="370" />
<glyph unicode="&#x200a;" horiz-adv-x="102" />
<glyph unicode="&#x2010;" horiz-adv-x="641" d="M129 602q-6 -37 18.5 -65t61.5 -27q7 0 23 1t24 1q49 0 201 -8q43 -1 76.5 25t44.5 67q8 36 -15 64.5t-59 25.5q-57 -4 -150 -4q-79 0 -112 2q-40 3 -73 -20.5t-40 -61.5z" />
<glyph unicode="&#x2011;" horiz-adv-x="641" d="M129 602q-6 -37 18.5 -65t61.5 -27q7 0 23 1t24 1q49 0 201 -8q43 -1 76.5 25t44.5 67q8 36 -15 64.5t-59 25.5q-57 -4 -150 -4q-79 0 -112 2q-40 3 -73 -20.5t-40 -61.5z" />
<glyph unicode="&#x2012;" horiz-adv-x="641" d="M129 602q-6 -37 18.5 -65t61.5 -27q7 0 23 1t24 1q49 0 201 -8q43 -1 76.5 25t44.5 67q8 36 -15 64.5t-59 25.5q-57 -4 -150 -4q-79 0 -112 2q-40 3 -73 -20.5t-40 -61.5z" />
<glyph unicode="&#x2013;" horiz-adv-x="1236" d="M129 713q-7 -34 20 -56.5t64 -19.5q43 2 195 2q328 0 657 -6q41 -1 72.5 24.5t40.5 65.5q8 36 -13 65.5t-57 28.5q-245 -10 -442 -10q-212 0 -424 6q-41 1 -72.5 -28t-40.5 -72z" />
<glyph unicode="&#x2014;" horiz-adv-x="1323" d="M129 719q-8 -36 14 -63.5t58 -26.5h80h759q27 0 61.5 -1t51.5 -1q39 -1 69.5 25t41.5 65q9 37 -14.5 65t-61.5 27q-140 -4 -197 -4h-516q-124 0 -235 6q-39 1 -70.5 -25.5t-40.5 -66.5z" />
<glyph unicode="&#x2018;" horiz-adv-x="468" d="M223 1196q-13 -23 3 -46t44 -20q35 3 58 3h16q5 0 15.5 -1.5t15.5 -1.5q6 -1 12 3t8 10q26 124 137 270q10 15 0.5 30t-28.5 15q-61 0 -103 -45q-119 -122 -178 -217z" />
<glyph unicode="&#x2019;" horiz-adv-x="468" d="M213 1143.5q10 -15.5 29 -15.5q59 0 102 46q119 122 178 217q13 23 -3 45.5t-44 19.5q-23 -2 -57 -2h-17q-5 0 -15 1t-15 1q-6 2 -13 -2t-8 -10q-26 -124 -137 -270q-10 -15 0 -30.5z" />
<glyph unicode="&#x201a;" horiz-adv-x="468" d="M-49 -168q-10 -13 0.5 -28t28.5 -15q59 0 104 45q110 116 170 209q17 26 -0.5 51t-48.5 23q-47 -3 -87 -30.5t-59 -70.5q-34 -80 -108 -184z" />
<glyph unicode="&#x201c;" horiz-adv-x="768" d="M250 1204q-15 -26 1.5 -51t47.5 -23q47 3 85.5 29.5t57.5 69.5q35 81 109 184q10 15 1 30t-28 15q-60 0 -102 -45q-115 -118 -172 -209zM543 1204q-15 -26 2.5 -51t48.5 -23q46 3 84 29.5t57 69.5q37 84 111 184q10 15 0 30t-29 15q-60 0 -102 -45q-115 -118 -172 -209z " />
<glyph unicode="&#x201d;" horiz-adv-x="768" d="M212.5 1141q9.5 -15 27.5 -15q59 0 104 45q112 114 176 218q13 25 -3 46.5t-44 18.5q-23 -2 -57 -2h-17q-10 0 -30 4q-15 0 -19 -14q-29 -124 -137 -273q-10 -13 -0.5 -28zM506 1141q10 -15 29 -15q60 0 102 45q117 123 176 218q13 24 -6 45.5t-49 19.5q-18 -2 -49 -2 h-17q-10 0 -30 4q-6 0 -13 -4t-8 -10q-26 -122 -135 -273q-10 -13 0 -28z" />
<glyph unicode="&#x201e;" horiz-adv-x="768" d="M-49 -168q-10 -13 0.5 -28t28.5 -15q59 0 104 45q110 116 170 209q17 26 -0.5 51t-48.5 23q-47 -3 -87 -30.5t-59 -70.5q-34 -80 -108 -184zM245 -196.5q9 -14.5 27 -14.5q60 0 105 45q110 116 170 209q15 26 -2 51t-47 23q-47 -3 -86 -29.5t-58 -69.5q-36 -85 -108 -186 q-10 -14 -1 -28.5z" />
<glyph unicode="&#x2022;" horiz-adv-x="681" d="M106 723q-19 -108 43.5 -187t180.5 -79q117 0 203.5 77.5t105.5 188.5q20 114 -42.5 190t-172.5 76q-116 0 -207.5 -80t-110.5 -186z" />
<glyph unicode="&#x2026;" horiz-adv-x="2048" d="M137 88q0 67 49.5 112.5t104.5 45.5q44 0 72 -30t28 -77q0 -60 -44 -108.5t-103 -48.5q-41 0 -74 26t-33 80zM819 88q0 67 49.5 112.5t104.5 45.5q44 0 72 -30t28 -77q0 -60 -44 -108.5t-103 -48.5q-41 0 -74 26t-33 80zM1501 88q0 67 49.5 112.5t104.5 45.5q44 0 72 -30 t28 -77q0 -60 -44 -108.5t-103 -48.5q-41 0 -74 26t-33 80z" />
<glyph unicode="&#x202f;" horiz-adv-x="370" />
<glyph unicode="&#x2039;" horiz-adv-x="382" d="M70 625l28 176q105 52 158.5 84.5t146.5 103.5l-28 -162q-124 -79 -191 -108q41 -28 69 -55t73 -84l-33 -185q-35 56 -48.5 75.5t-41 52.5t-57.5 54.5t-76 47.5z" />
<glyph unicode="&#x203a;" horiz-adv-x="382" d="M41 432l29 158q89 57 196 110q-49 41 -76 72t-67 94l31 164q63 -90 110.5 -136.5t118.5 -92.5l-33 -185q-104 -51 -158 -83.5t-151 -100.5z" />
<glyph unicode="&#x205f;" horiz-adv-x="463" />
<glyph unicode="&#x20ac;" d="M-70 864q4 32 29.5 51t58.5 17q8 0 35.5 -1t48.5 -1h74q45 118 112 212.5t166.5 172.5t241.5 121t316 43q91 0 190 -23q41 -7 59 -44.5t3 -76.5q-15 -35 -52 -47.5t-71 6.5q-72 35 -191 35q-102 0 -189 -31t-153 -86.5t-115 -126t-83 -157.5h153q47 0 72 2q28 3 47.5 -17 t13.5 -47q-6 -31 -32 -50t-58 -17h-33h-202q-22 -93 -25 -178h143q47 0 72 4q28 2 47 -18.5t15 -47.5q-6 -30 -32 -49.5t-59 -17.5h-34l-154 2q16 -176 121.5 -278.5t302.5 -102.5q101 0 205 37q5 2 17 7.5t18 8.5q24 11 44 -4.5t11 -38.5q-23 -56 -65 -94t-97 -45 q-115 -13 -194 -13q-365 0 -508 224q-72 110 -84 297h-88h-15q-27 0 -45 19.5t-14 45.5q6 32 31.5 52t58.5 18q2 0 72 -4q6 89 24 176h-135h-14q-28 0 -46 19.5t-14 45.5z" />
<glyph unicode="&#x2122;" horiz-adv-x="1406" d="M135 1395q-4 -22 7.5 -35.5t33.5 -13.5h168l-90 -521q-5 -25 9 -42t40 -17q24 0 45 17.5t25 41.5l90 521h164q21 0 38 14t21 35q3 22 -9 36.5t-34 14.5h-450q-21 0 -38 -15t-20 -36zM641 823q-3 -25 10.5 -41t36.5 -16q24 -1 43.5 15.5t24.5 41.5l61 365q7 62 14 135 q4 -38 7.5 -62t5 -35.5t2.5 -15.5l55 -395q3 -23 19.5 -36t40.5 -13q23 0 43.5 13.5t31.5 35.5l195 395q29 62 51 115q-2 -9 -7.5 -33t-11.5 -51t-10 -53l-67 -365q-4 -25 9 -41t38 -16t44.5 16.5t22.5 40.5l97 541q6 34 -14 58t-54 24q-35 0 -68.5 -22t-50.5 -56l-221 -459 l-65 459q-5 34 -30.5 56t-62.5 22q-32 0 -60 -24t-34 -58z" />
<glyph unicode="&#x25fc;" horiz-adv-x="1116" d="M0 0v1116h1116v-1116h-1116z" />
<glyph unicode="&#xfb01;" horiz-adv-x="1024" d="M-309 -389q20 57 110 65q92 9 154 86q52 64 83 181t75 362l114 715h-10h-12q-26 0 -39.5 23t-7.5 51q6 26 28.5 40.5t51.5 12.5q24 -1 18 -2q27 157 74 252.5t127 167.5q86 67 205.5 62t222 -39.5t125.5 -65.5q16 -11 24.5 -30.5t9.5 -33.5v-14q0 -58 -39 -114t-102 -56 q-41 0 -70.5 27t-29.5 79q0 28 8 52q8 31 -44 50.5t-97 12.5q-53 -9 -93 -41t-66 -84t-42 -104t-29 -121h68q23 0 52 1t36 1q24 0 38 -20t9 -44q-6 -29 -30 -47t-54 -16h-76h-67l-109 -662q-4 -22 -17.5 -91.5t-19.5 -108.5q-8 -43 -13.5 -71.5t-18.5 -82.5t-27 -92.5 t-38 -91.5t-50.5 -90.5t-66 -78.5t-84 -66.5t-104 -43.5t-126.5 -20q-31 -1 -46.5 28.5t-4.5 61.5zM608 104q20 90 43 205l49 275q61 321 52 417q-3 36 14 66t49 33q42 3 76 12q36 9 60 -20.5t16 -67.5q-8 -41 -37 -186l-58 -334q-46 -242 -59 -398q-3 -43 -37 -69.5 t-80 -26.5h-14q-38 -2 -61 27.5t-13 66.5z" />
<glyph unicode="&#xfb02;" horiz-adv-x="1075" d="M-307 -389q18 57 108 65q56 5 95 31.5t59 54.5q52 64 83 181t75 362l116 715h-12h-12q-26 0 -39.5 23t-7.5 51q6 25 29.5 40t52.5 13q23 -1 18 -2q27 159 74 254t127 166q85 67 203 62t219 -39.5t125 -65.5q15 -11 23 -30.5t9 -33.5v-14q-1 -5 -71 -381l-95 -588 q-4 -24 -11 -62.5t-11.5 -65.5t-8.5 -57t-4 -52.5t5 -36.5l2.5 -7.5t8 -17t15 -22t23.5 -18t33 -9.5q15 0 27 0.5t24 3t17.5 4t21 6t22.5 6.5q23 7 34.5 -14t2.5 -45q-13 -36 -44.5 -59.5t-70.5 -28.5q-66 -8 -102 -8q-221 0 -207 246q2 31 7.5 70.5t11 70.5t6.5 37 q58 358 88 530q31 185 43 287q11 89 16 199q2 23 -24.5 39.5t-61.5 22t-63 1.5q-53 -9 -93 -41t-66 -84t-42 -104t-29 -121h68q16 0 39.5 1t32.5 1q28 0 46.5 -19t14.5 -45q-6 -29 -30 -47t-54 -16h-74h-67l-111 -662q-6 -34 -18.5 -100t-18.5 -100q-8 -43 -13.5 -71.5 t-18.5 -82.5t-27 -92.5t-37.5 -91.5t-50.5 -90.5t-66 -78.5t-83.5 -66.5t-103.5 -43.5t-126 -20q-33 -1 -48 28.5t-3 61.5z" />
</font>
</defs>
</svg>
